<svg xmlns="http://www.w3.org/2000/svg" viewBox="0 0 487.93 836.85"><defs><style>.cls-1{fill:#c22a39;stroke:#656565;stroke-linejoin:round;stroke-width:0.8px;}</style></defs><g id="Juradó"><path id="path5134" class="cls-1" d="M666.65,686.25l-5.47-4.47-3.48,1.74v-2.74l-10.94-8.95v-1.49l-5.22,1.25-2,3.72-6.22,1.74-1.49-1.74-3,.75-.25,2-4.23-1v-2.73l-2.48.25-3.73,2.73-4.47-3L611,679l-1.24-.49-1.24-5h-6.71l-.5-4-13.17.25-1.25-3.73-3.73,2.23-1,6.72-7,7.95v14.42l-6.71,6.21L567,703.4l-3.73,1.74,3,2.74L565,715.33l-6.21,4.23L558,725l3.73,5.46-1.49,8.45-13.18-.74-1.24-2.49-6,1-2.24,4.72-3.23.25-6.22,7.21-.49,8.7-4.48,1.49-1-1.74-10.44.25.25-6.47,2.24-3.48-.5-8.45L507,734.87l-1.25-7.08,4.57-4.16v-2.08l-5.82-3.75v-6.24l2.08-2.08,6.24-.83,6.25-5.83-1.25-3.33-3.33-1.67,1.25-1.66,4.16-4.58-.42-4.58-5-4.16-2.92-4.16-2.49-9.16-5-3.33,2.08-10,6.66-8.74-3.74-8.74-8.74-5-4.17-6.66-.41-7.49-4.16-7.91-7.08-4.16V599.6L480,596.69l-7.91-23.31-.83-5.41-5-10.41V553.4l7.49-10.4,10.4-6.25L482.9,522.6l4.16-4.16,4.58-17.06-3.33-7.91-4.58-2.5-4.58-10.4h-2.5l-6.66-5-.83-4.16-2.08-.42.42-6.24,7.07-6.24-.83-5-4.16-2.08v-2.08l3.33-2.5v-15l3.33-4.58L475,421.88l-10.41-2.08-3.33-3.75h-3.74l-2.5-2.49-1.67-8.74,2.5-2.92v-3.33l5.83-3.33v-5.82l-2.91-1.67V384l-4.17-5v-3.74l-2.91-2.5.42-3.75,2.08-2.49v-6.25l-3.33-1.66-.42-5.83,4.58-8.32h5.83l6.24-6.66v-4.16l3.75-3.33V327l-8.33-5,2.08-2.49-1.25-4.58-1.66-3.75-2.5-3.33-13.32-12.07-.41-2.08-1.25.42-1.25,5.41-5.83.83-2.91-2.91-2.08.83-2.5-1.67-3.33-6.66-4.58-4.16-5-.41L413,286.62l-7.9-2.5-3.75-3.33-7.08.41-.83,2.92-4.16-1.67-2.91-5.82,1.24-3.75-2.08-4.16-7.9-5v-10.4l-2.09-1.67v-8.32l2.09-.42v-4.16l-4.07-11.26-8.39-2.65-2.65-4.42-6.18-2.21-3.09-14.57,2.65-1.76.88-4L346.6,181.13,344,175.39l-5.74-4L337.32,156l-4-5.74-2.21-7.51L325,136.09l.44-3.09,2.21-1.76L325,128.59l-.44-6.18,3.09-2.65.44-9.28,5.3-6.62-.88-11,1.76-2.64,3.54,2.64,9.71-3.53-1.77-7.06-7.06-.88-2.21-3.1,8.83-10.15V65.89l6.62-8,1.92-.6,5.44-6.86V45l-5.44-3.63-2-6,2.42-4.44,1-8.47.43-15.27L344.48,13.9l-.57,4-6.78,4.53-4.52,10.19L316.23,42.77l-5.65-2.27-6.78,5.66-12.43,2.27-10.17-4-2.26-6.22-2.83-4L266.51,36l-4,4.53-5.08,1.7L247.3,37.67,181.63,285.33l4,1.81v3.12l6.44,2.54,7,7.36-1.12,5.09,1.68,1.41,1.4,3.4,9,1.13,2,4.53,9.24.56,4.76,2.83,4,15.75,5,1.7.56,6.79,4.76,7.63,2.24-.56,1.68-3.11,3.08,5.94,3.36,2.26,2-2.54,6.44-2.55,1.12,1.7,7.56,3.67,17.36,25.47,9.24,17.54,7.28,7.07-3.08-6.79-4.2-5.94.28-4.25,1.12.29L298,394l9,12.44,10.37,3.4,1.12,5.37,3.08,3.4,9.52,4.53L341.64,437l17.08,18.67,3.92,5.09,4.48-.28.56-2.55-9.8-8.2L352,439.53l-8.4-6.79.28-4.24,4.76,2.26,3.36,4,7.56,2.55,1.68,8.21,5.88,2.82,4.2,2.27,3.92,7.64-.07,24.87,8.08-1.15,15,23.63-1.39,19,2,3.12-.84,5.65-2.52,2.27-3.36,8.2L385.92,545l-2.24-3.11-3.64-.28-5.6,6.79-7.85,8.2-5.88.57-2,3.39,1.4,5.09-2.09,11.26-7.56,8.21L348.26,593v7.63l-2,5.38-3.08,1.7.56,3.68L351.62,625l2,1.13.84,2.54-2.24,3.4v14.71l5,3.39,2.8,6.23,4.2,1.13L367,653l-1.12-9.33,3.92-15.85,2-5.94,7.28-4.81,7.56,1.42,3.64,5.37L394.74,636l5,3.39,3.55-6,15.55,4.91,3.63,6.39,14.7,5.48,10.1,8.94,5.32,9.9,10.08,3.11,1.68,5.38,6.16,5.65.56,2.83,5.32,6.51,5,2,2,17.54,4.48,2.83.84,5.94-2.24.57-.84,3.11,10.64,9.62,4.78,15.71-.42,11.62,7.23,5.4,4.12,20-2.94,6.35,1.06,23.39,2.24,2.55.28,2.82-3.36,2.27L511,825.4l.56,5.37,3.08,5.38,7.28,2,3.64-2.55,3.92-.56,6.44,5.37,5.32,2.83,2.52-2-7.56-7.35-2.8-.29-.56-2.54,3.64-5.38L537,815.5l5.74-14.44L560,788.72,570.06,785l2.63-.37,1-9.19,3.48-4,3.48-.5,2.24-1.74L579.16,766l3-1,1.74-6.21,6-3,2.73.74,2.24-7,12.67-7.2,1.49.24,1.74-3L607.24,737l-.74-8,4.72-4.72h1.49l5.47-6.46,9-3,1.49,3.23,3.23-.75-.5-4.72L645,700.17,656,698.68l6.71-4.23,6.09-7.58Z" transform="translate(-181.23 -6.77)"/></g></svg>