<svg xmlns="http://www.w3.org/2000/svg" viewBox="0 0 835.05 801.94"><defs><style>.cls-1{fill:#c22a39;stroke:#656565;stroke-linejoin:round;stroke-width:0.8px;}</style></defs><g id="Capa_2" data-name="Capa 2"><path id="path4340" class="cls-1" d="M456.54,83.32l-2.72-1.8-6.65-8.09-5.78-7.36.08-2.3,2.84-1.6,3.78-6.42-.55-4.82-4.73-4.61-3.24-7.84-5.08-2.41-.12-1.34-4.7.4-3.32-.8-1.69.82-.12,3.26-2.85,0-1-1-6.4-2-1.75-4.59-3.5-3-8-1.48-4.12-1.72-1.08,4.51-5.62-2-3.94,1.41L384,37.23,374.68,34l-9.12,1.16-1.47,4.1-7.26-.05-5.42-4.6L343.93,38l-4.4,1.66-9.09-.83L326.32,41l-5.23,5.24h-5.78l-5.23-3-2.2-2.76-3.31,1.93-1.1,3.31-6.05.28-2.21,3.86-4.4,3-7.89.64L281,59.38l3.51,4.29-3.9,6.24L282.14,75l-5.45,3.9-1.17,6.24-4,2.93-8.2-.56v2.45l-2.7,2.45.49,4.17,3.68,1.72,1,4.91-2,5.64,6.38,3.44,1.22,5.64,3.67,3.66,4.79,7.12v6.38l-8.07,3.24-4-1.2v-4.38l-3.19-1.2L259,135.17l-5.63,2-5.3-3.5L246.34,128l-5.13,4.39-2,3.51,5.4,7.64-4.78,8.74-1.17,13.65-10,3.39-5.06,5.07-1.56,10.14-9.73,6.24v8.58l-3.5,10.92h-9.34l-3.12-3.12h-2.72l-.78,4.68-2.73,2.34,3.9,5.85-1.17,7.41-8.17,7.8-1.56,7.8L180,248.06l2.73,3.12-2,8.19L175,268.73l-6.22-1.17-1.56-2.73-3.11-1.56-1.56-8.19-3.89,3.51.39,5.07L153.58,268l1.94,4.68-2.72,6.24-2.73.39-1.55,5.85-7,3.9-1.14,7.59-3.8,3.48-3.82.27-3.2,7.2-7.25-1-.27-2.34-6.17-.18-5.42-4.89-1.56-8.19-3.5-4.29-5.45-.39-5.06-3.12.39-2.73,3.5-4.68-.39-5.07-5.84-5.07-5.44-12.87L82.8,249.2,84,243l-3.89-3.12-.39-9-4.28-6.24-.78-12.48L70.74,211l-2.34-4.29H65.29l-1.17-2.34-3.89-1.56-5.06-3.12L54.78,195l-6.23-2.73L47.38,188l-3.11-3.12L32.2,186.41l-3.11-1.56-6.23-2.34-2.72-1.95-1.95,9.36H15.85l-3.11,4.29-3.11,7.41,1.16,6.63-2.72,2.34,1.17,4.68,3.89,3.51-1.56,6.63-3.5,5.07v5.46l4.28,2.73-1.94,3.12,4.28,1.56-1.17,3.51.78,10.92,3.89,3.51L17.41,266l5.45,2.73V273l3.5,5.46-2.72,3.9,13.62,14.82-2,10.83-.28,10.26-.69,5.84-1.67,3.06L34,331.33l3.75,2.5v3.75L34,342.31l-1.32.42-4.56,5.47v1.52l-6.08,7,1.52,2.13,4.86.61,1.22,4.86-6.69,2.44-2.43-1.83-1.22,1.83.61,7.6-3.65,4.56-.31,6.39-2.13,1.83.31,4.26,1.82,1.82-1.52,1.22-.3,2.13,4.26,4.56,1.52,5.17,2.73,3.95.61,10.65,4,2.74L29,427.59l7,11.56-.61,2.74-1.83,1.22,2.13,10,4.26,1.52,1.83,3,5.78,1.82,2.8,7.76v2.87l-1.43.29v5.73l1.43,1.15v7.17l5.45,3.44,1.43,2.87-.86,2.58,2,4,2.87,1.15.57-2,4.87-.29,2.58,2.3,5.45,1.72,2.58-.86,3.44.28,3.16,2.87,2.29,4.59,1.72,1.15,1.44-.58,2,2,4-.57.86-3.73.86-.29.28,1.44,9.18,8.31,1.72,2.3,1.15,2.58.86,3.15-1.44,1.72,5.74,3.44v2.3L112,532.67v2.87l-4.3,4.58h-4l-3.15,5.74.29,4,2.29,1.15v4.3L101.68,557l-.29,2.58,2,1.72v2.58l2.86,3.44V570l2,1.14v4l-4,2.29v2.29l-1.72,2,1.14,6,1.72,1.72H108l2.3,2.58,7.17,1.44.86,3.73-2.3,3.15v10.32l-2.29,1.72v1.44l2.87,1.43.57,3.44-4.87,4.3-.29,4.3,1.43.29.58,2.87,4.58,3.44h1.72l3.16,7.17,3.15,1.72,2.3,5.44L125.76,660l-2.87,2.87.86,9.75-7.16,4.3-5.17,7.17v2.86l3.45,7.17.57,3.73,5.45,16.06,3.15,2v5.45l4.88,2.87,2.86,5.45.29,5.16,2.87,4.59,6,3.44,2.58,6-4.59,6-1.43,6.88,3.44,2.3,1.72,6.31,2,2.86,3.44,2.87.28,3.15-2.86,3.16-.86,1.15,2.29,1.14.86,2.3-4.3,4-4.3.57L137.8,793v4.3l4,2.58v1.43l-3.16,2.87.87,4.88,4.65,3,.34,5.82-1.54,2.4-.17,4.45,7.19-.17.68,1.2,3.09-1,.34-6,4.28-5,2.23-.17,1.54-3.26,4.11-.68.85,1.71,9.08.52,1-5.83-2.57-3.76.51-3.77,4.28-2.91.86-5.14-2.06-1.88,2.57-1.2,1,.17,4.62-4.28v-9.93l4.8-5.48.68-4.63,2.57-1.54.86,2.57,9.07-.17.35,2.74h4.62l.86,3.42.85.35,1.89-3.26,3.08,2.06,2.57-1.89,1.71-.17v1.89l2.91.68.17-1.37,2.06-.51,1,1.2,4.28-1.2,1.37-2.57,3.6-.86v1l7.53,6.16v1.89l2.4-1.2,3.77,3.08,1.37.34,3.6-3.42,5-.26.16-2.38-1.82-2.34.52-8,1.3-1-1-2.08,2.34-2.86,3.11-.52.78-2.07-6.23-6v-2.08L253.66,740v-1l1.56-.26.26-1.82-6-2.59-4.15-.26-1.56,1-.26-2.34-4.68-1.56-2.34,1.3-.78,1-2.6-1.82-3.11-1.3-.52-7,1-7.27,3.37-2.86v-3.9L231.06,707l-.26-3.89-3.38-3.64L224,697.64v-1.3l4.42-2.6,2.6.52,6.23-4.67,2.86-4.16-.78-7.54a3.84,3.84,0,0,1,3.12-2.07h6.75l.26-2.34,2.08-1.3,2.34,1.56,2.6-3.12.52-3.12,2.86-2.08,1.56-.26,4.93-3.12,3.38-.77-.78-3.12,2.08-3.12,4.16,1,1.82-2.86h2.07L282,648l12.21-7,4.42-1,2.34-6-1.82-3.37-.52-6.24,3.9-3.12v-1.82l3.64-2.6,1.29,1.82,15.07-8.83,1.56-8.57-.26-.78,3.12-2.6.78-4.68,8.84-3.12,3.89-3.38,10.4-3.11,1-2.34,8.32-.78,3.64,1,6.49-3.38V576.3h1.3l2.6,1.82-.26,4.16,2.34,6.23,4.42,1.56,1.55-2.6-1-2.59,2.07-3.9,1.56-1.82H387L399.16,568l1.3-4.16,4.16-2.34,12.73.78,7.54-2.6L429.3,556l2.34-2.08,6-1.3,7-9.36,2.08-4.41-1-1-.52-2.86-1.56-2.08-4.15.78-2.86-4.16-.52-3.12-2.34-1.29-2.86-.26-2.08-.78L426.7,521,453,511.34,502.05,481l3.12-3.12-1.82-4.94-5.19-4.42-2.34-.52-2.6-5.19,2.34-1.3,1.3-2.08,4.93-.78,3.38,1s0-3.38,1.3-3.38a39.64,39.64,0,0,0,4.94-.78l1.56,1.3v1.3l5.45-2.34.78-1.82,2.34-.26,1.56,1.56,2.6-3.12,3.38-.52,1.3,1.3h5.19l4.68,1-.78-1.82,6.23-.52H546l3.9-2.07,3.9,2.85h1.82l1.3-1.29,5.45-.26,8.32,5.19,2.08,24.17,5.45,23.9-.78,3.38,3.9,2.6,3.38-3.64,2.6,2.34,3.63-2.08-2.59-6,3.11-2.6,4.16,1,1.82-1.3-2.34-3.37.78-2.08,5.2.78-1.56-2.6-4.16-2.34.26-1.82,3.38-.52,4.68-3.64.26-3.11,3.63-6.24-1-5.71,2.86-3.64-1-4.94-2.86-.52.78-1.3.52-2.86,3.9-2.07,2.34,2.59,2.34-2.59,4.93-.52,1.82,1.55,3.12-1.55.26-2.08,2.34-.78,1,.52,2.86.26,1.56,2.86,3.37-.52,9.62-7.54,1.82-.26,1.3,2.08,3.37-.52s-.52-3.64.78-3.9,6-1,6-1l66.77,42.87L722.47,485l-.19,2.78-1.85,2.41,1.29,1.67,2-1.11,1.49.55.92,2.78-.37,1.67.93,1.3,2.78-.37.74,1.48,2.6.19,1.29-.93,1.67-.19,3.15,1.86-1.11,3.15v2.22l-1.67,2.23-1.11,3.7,2.78,2,1.86-.18,2.41,2.59-.19,1.3.93,1.48.37,3.16,2.78,2.41,3.15-.38,1.48,2.41,2,.19.19-1.11,1.66-.19v4.64l2.79,6.85,3.52.38,3.33,2.59,1.12,4.26,1.66.56v-1.67l.75-2.22,1.66.55v2.78l4.08,6.31,2.41,1.48-.18,9.08,3.33.19,1.3-.74,1.85.37.19,2.22,2.41,2,2.41-1.11,1.85,4.08,4.27,2,1.48,2.78,5,1.29,1.67-2.59,5,.18,2.41,1.49.55,2,2.6,1.66,3.15-.37,2.73,1.45,3.83-1.28s4.16-6.87,4.16-7.71v-9l2.29-2.5,5.21,1.46,1.25,5.41,4.58,1.25,3.12-1.87-1.45-4.79-6.14-3.15.25-2-2-5.3-.6-3.08,1.16-2.81-2-2.13-.57-3.12-1.17-2.89L827.65,531l.64-2.39-2.5-4.15,1.34-4.73,1.42-2.41-2.27-1.22-.58-2.49-2.77-2,.26-2.61-1.44-1.51-.28-2.22L819.78,502l-.23-5.28-3.74-1.92.07-5-.92-1.29-.23-3.71-2.1-2.81-2.25-4.24-1.63-1.72.21,3.72-1.06.59-2.85-2.57-1.47.72-1.81-.45-.65-2-1.74-.85-2.49-3.33-1.81-.62-5.08-4.6-2.21-3.91-.77-4.94-3.35-6-3.06-4.17-2.7.84.62,1.89-.85,1.72-1.91-.51-.7-2.24-2.42-1.17-.53,1.34-1.63.19-1.75-1.41-3.73-8.4-2.38.34-.84,1.4-4.48,1.4-.28-2.8-4.76-.84-.84-2.8,1.12-2-2.24-3.08-2.53,1.4-.28,1.68-3.36,2.8-3.64-2-1.12-2.8-4.48-4.2-13.16-6.72-6.44-5.89-12-5.32-7-4.2-7.56-5-19.05-54.89-1.4-13.45-1.4-5.32-.56-7.28-2.8-3.64-.56-4.48-5-3.08-1.12-3.65-4.2-12L644.72,282,631,267.11l-6.44-4.76-4.76-1.68-3.08-1.4-6.16-1.68-7.57.56-9.52-3.36H587l-12.6,2.8-5.89-.28-14.28-8.68-9-2.8-3.92-5.6-5.32-2-6.45,1.12-4.48,4.2-5.32-.28-.56-1.68L501.32,231v-3.36l1.68-.56-.56-5.32,1.68-1.68,1.4-4.76-1.4-3.36-3.64-.56-5.33-3.64-7-6.72-3.92-4.77.28-5.32L482,186.45l-8.12-7.28-6.44-3.92-3.08-5.32v-4.48l-2.24-5L455.66,154l-1.12-4.48L449.22,147l-10.64-9.52-9.24-6.16-.56-2.52-7.57-7,.56-5-.84-10.08-2.24-5.88,2-3.36,4.49.56,1.68,2.52,6.72,3.08,3.6-.31,3.09-2.07,2.86-.65,2.7-1.28,1.44-1.83,3.69-8.57,1.58-2.15,2.9-1.35,2.28-.14Z" transform="translate(-7.67 -24.23)"/></g></svg>