<svg xmlns="http://www.w3.org/2000/svg" viewBox="0 0 838.14 772.64"><defs><style>.cls-1{fill:#c22a39;stroke:#656565;stroke-linejoin:round;stroke-width:0.8px;}</style></defs><g id="Río_Quito"><path id="path5286" class="cls-1" d="M751.53,771.33l-47.37,9.47-16.1,16.11-19.27-5.37-11.36,7.58-17.69,12-17.68-1.27L591.11,782.7l-41.05-19-26.52-17-13.27.63-12,13.26-9.47,1.26L457.22,746.7l-26.52.63-3.16-13.9-7-4.42,1.26-5.68,14.53-3.16-8.84-6.94L422.49,676l-29.06-37.89H376.38l-6.94,10.1-15.16-1.26L348,637.44,341,639.33l-5.06-7-3.15-13.89-10.74-1.89-12.63-17.06-1.27-13.26,5.69-2.53v-6.31l-22.11-30.32-30.68-15.34-6.86-35.57L260.45,482l-14.26-52.57-16.92-8s-9.8-9.8-13.37-11.58-23.16-2.67-23.16-2.67l-20.5,21.38-2.67,23.16-16,8v4.46l9.81.89.89,12.47-12.48,16.93-2.67,16L137.5,514l-1.79,2.67,10.7,3.57v32.07l-19.6,11.59-5.35,31.18-22.27,41-10.7,26.73L77.8,686.88,76,704.7,64.44,718.06,53.75,707.37l4.45-10.69s-1.78-31.19-2.67-36.53-14.26-19.61-14.26-19.61l7.13-1.78V623.62l8.91-6.24v-9.8L45.73,604,35,582.63l-7.13-.89-11.58,8-9.8-.89V570.16l5.34-6.24,5.35-21.38-6.24-8L9.2,487.3l12.47-41.87.89-28.51L33.25,388.4v-9.8L18.11,367l-5.35-14.25,7.13-3.57,8-52.56,6.24-4.46L27.91,280.6v-4.45l11.58-5.35.89-13.36-8-20.5,1.79-15.14,11.58-12.48,1.78-11.58-9.8-8.91,4.45-52.57,10.7-8.91L58.18,113l15.65,2.65L94.07,134l18.4-.92,10.12-19.32,19.32,2.76,2.76,3.68,18.4-3.68,9.2-17.48,29.44-21.16,15.64.92,9.2,11,16.56-14.72h13.8l16.56,10.12h24.84l47.84,46.92L360.87,134l7.36,12.88,24.84-18.4,6.44-10.12,31.28-14.72,13.8,7.36,3.68,8.28,9.2.92L486.91,89V76.08l50.6-13.8,13.8-9.2,16.56,9.2L576.15,77l40.48.92,15.64-4.6h42.32l49.68,11,20.24,24.84,11,8.28,10.12-12.88-1.84-7.36L750,88l7.36-15.64h12.88l24.84-4.6,9.2,7.36,12.88-12,4.6-16.56,18.4-7.36,3.68,5.52L843,61.36l-4.6,8.28.92,16.56-15.64,12v16.56l-12,8.28-1.84,8.28-16.56,12.88L793,161.48l-4.48,15.65-11.65,1.67,2.5,10,5.82,5v20l6.66,5.83-4.16,7.49-8.32,3.33L761,254.53H746l-8.32,29.13-.84,39.95-9.15,19.14h-7.49l-10,9.16,1.67,12.48h9.15l15,13.32-7.49,14.14-9.15,2.5-2.5,7.49,6.66,6.66,7.49,11.65-10,4.16.83,6.66,10,2.5v11.65l-10,3.33,9.16,10,20,3.33v15l-5.83,5.83,10,8.32,25.8,2.5,4.16,8.32-27.46,7.49L723.57,505l21.63,33.29,42.45,27.47L823.44,570,801,599.09l-19.15-1.67-9.15,14.15-5.83-6.66-14.15,10-2.49,33.29L766.84,669l13.32,35.79,5.6,50.1Z" transform="translate(-6.13 -38.88)"/></g></svg>