<svg xmlns="http://www.w3.org/2000/svg" viewBox="0 0 845.38 630.33"><defs><style>.cls-1{fill:#c22a39;stroke:#656565;stroke-linejoin:round;stroke-width:0.8px;}</style></defs><g id="Quibdo"><path id="path5238" class="cls-1" d="M406.58,713.72l6.41-.58,2.92,2-.58,5.25L418,724.8l4.37.88,4.38,5.53-.3,1.46-4.08,1.75v2.92H427l1.46,2.62,4.95-7.87,7-3.79,3.5,2,2.62-2,1.17,1.46.58-6.13-3.79.3,1.75-3.79h2l.58-2.63-.87-2.62,2.33-.88,2.62,3.5,2-2h2.34l1.75,2,3.49-.29,1.17-1.75.88-7,2.33-.87-1.75-1.75,4.66-3.21,4.67.59-1.75,2.91,2,4.08,7.87,2.92,4.37-5,3.79,1.46,1.17,3.5,4.66-3.79-1.16-2.92,2.62-1.45,4.37,1.75,1.46-6.42,2.33-.29,2.92,4.37,6.71-1.75L527,683.4l.29-2.91,13.12-6.71,7.88.29,3.49,5.25,6.42,2.33,1.75,2.63,7.29.29,4.95-3.79h11.08l3.21-2.33v-4.67l6.7.58,5.54,7.58,3.5.59,1.46-2,4.37,1.16,2.62-3.5.29-5.83,1.17-1.16-2-2.92,5.54-6.12,10.49-.29,5.84-4.08h5.83l4.37-2.92-.29-2-2.33-2.62.87-5,2.33-1.46v-7.28l2.63-1.75h6.12l5.54,9.33,4.08,2.91,1.39,4.13,4.3-.77.82-3.27,2.18-2.18-.27-2.45-6.81-1.64-2.19-3.54.82-1.64-.27-5.17-1.91-3.82h-3l6.55-6.27,3,.55,5.18-6.82-.27-1.63L669,611.07v-.81l2.46-1.09.54-4.64,2.46-1.09L673.05,601h-8.17l-1.37-2.45s3.82-4.91,4.09-6.27,3.27-1.36,3.27-1.36l5.45-8.45.55-6.27,4.9-7.63h1.37l2.72,2.45,1.37-7.36,6.26-2.73,2.18-3,1.64,2.72,3,.27,1.63-1.9,5.45-.82,7.64-7.63v-3l6-6.54h1.64l.54,1.9,4.09-1.36.82-2.18,2.45-.27,3.54-5.45,4.37-1.36.81-4.91,2.46-2.18h3l3,2.45,3.82.55,1.91,1.63,2.72-2.18,4.09.28.55,2.18,3.27,3.27h7.63l.54-2.46,3-2.45-.27-1.64-1.64-1.63V523H775l.27-8.45,1.36-.27,3.82-5.73.27-8.17,2.18-.82L787,492l3.54.27,1.64,2.45,5.72-.54,2.18-1.64,4.09-.27,1.09,1.64,8.45-5.46,14.72-.54-.55-6.54,4.36-7.09L839,471l3-5.45-1.09-6-4.64-2.72.55-2.45,3-3,.81-5.18,1.37-1.36-.28-2.46-1.63-2.18v-3l7.36-7.9-.27-3.54-.55-1.09L845,415.92l-2.46-1.9-4.09.81-3-3v-2.18l3-1.64v-1.63l1.88-3.28-.23-2.75-2.16-3,1.52-6.66-2-5.12,1.6-3.29-2.39-6.35-7.44-4.47-.69-3-4.26-3.5-.78-6.6-4.61-13.26-1-6.13,1-5.56-.59-5.49,2.49-4,.07-4.46-3-1.51L812,310l1.78-2.91L812.1,296l3.38-4.78-5.83-4.73,3.38-4.56,1.93-5.26-1-4.2-9.76-3-.63-7.43,3.21-3.42,0-5.79-2.68-1.47-9.59-.55-.44-5.22L787.86,240l-4.34-7.27-8.26,4.3.27,4.46-11.59,4.38-1.26,4.39h-3.75l-9.09,11.59-.31,11.59-5,5v1.88L742,284.08l-5.33-.31-1.56,2.5-2.51,3.14-6.89.62-2.51,2.2,1.88,1.88-5,6.89-4.38.31L707.24,307l-6.27.94-3.13,2.51-.31,7.83-2.82.31L680,335.46,675,337l-1.25,3.13-11.28,4.39-1.88,9.08-3.44,2.51h-7.21l-13.78,9.71-5.64,8.46-.94,4.7-8.77-.63-11.28.32-4.07,3.44-3.76,8.77L596,395v5l-1.57,1.56-4.7-.94-4.38,2.51-.31,4.07L583.19,405l-2.2-.31-3.44,2.5-2.2-2.82-2.82.63-1.25,2.82-10.34.94L557.81,410l-12.53-4.07-.31-1.88-5-.63-1.26,3.76,1.57,6.9,3.13,1.56-.94,3.76-6.58,5.64-4.07,2.82-3.13,7.52.94.94,2.5-.63,1.26,1.88-2.2,3.13L523,444.47l-9.09-.62-3.13,4.38-1.25,6.58-15.66,10.65-6.9,1.88-7.51.94-2.82,2.51,2.19,1.87,3.45,1.57,1.88,8.46-1.88,5.95L477,490.21l-10.34.31-4.7,2.19-4.38,3.14-3.76-1.26-3.45,2.82-7.52.63L441,500.86l1.87,1.25-6.57,7.21-5-2.2-7.83,2.51-2.82,2.82-7.83-2.19-3.13,3.13-2.19,4.38h-4.39L399.3,520l-5.64-.63-2.5-.31-.32-4.39-11.27-2.5-1.57-2.2-5.95,3.45-.94,4.38,6.58,3.45,1.88,6.89-5.64,2.19L367.35,545v4.07L363,552.86h-2.82l-5.95-3.45-15,2.51-8.78,4.7L326,562.26l-12.85,1.25-4.69-3.76h-9.09l-9.08,6-1.57-2.19h-5l-1.88,4.39-3.76.31-2.82-3.45-7.52-.31-5.64,3.13L259,572l-3.45-1.88-9.08-10.65-1.25-5,2.19-2.2-2.82-5.64-9.08-3.13-9.09-.94-2.19-5.32-.31-4.08L217.3,525l-9.09-4.07L201,513.7v-3.44l-4.7-4.08-4.7-1.25-3.76-19.11-.63-11.59,1.26-5-4.08-2.51-1.25-5,6.58-5.95-.62-4.73-3.06-2.12v-4.6l3.73-1.1.65-3.28-1.53-1.1-.22-6.35,4.38-2-1.53-2.41,4.16-4.81,1.31-.22.66,4.82,3.72,1.75,3.51-2.63h2.84l.88,2-1.1-6.35h-2.84l-.22-1.75,3.28-.88.44-7.44-2.19-2L202,413.86l-.88-4.16L199,407.29l.22,3.72-5.25,3.51-2.41-7.67-2.63-1.53-2-5.47h2.85l.87-2.41-3.28-2,1.53-2.85-7.23-2.41-.87-1.53-3.94,3.72-2.19-3.94,3.06-3.07-.87-1.53,2.84-.88-1.53-2.19-3.5-.65-4.82,2.63-8.1.87-2.63-3.94-7.67-1.53-1.09-3.51,1.31-.87-1.53-.44-5.69,5.25.43,3.51-6.35,10.51-2.41-.66,1.1-3.72-1.53-2.63,1.31-3.06,2.63-.66-1.1-2.63.44-3.06,3.72-1.54-2.19-3.28.44-5.91,2.63-2.19-2-2.19.44-6.57,9.41-7.89,1.54-4.81-2.85-3.07,1.75-3.07,2.63.22-1.32-3.06,1.32-1.53v-1.54l-2.85-2.19v-5.25l3.51-1.54,1.09-6.13,2.41-1.31.44,5.91,2.41,2.41v-2.19l3.72-1.75-.66-6.13-2.19-1.54.66-2.4,5.91-2.41.88-7.45,5.69-5.69,3.5-9.64h2.63l.44-2.41,2.85-.65.44,2.62,6.35,7.67,2.4.66,1.1-2,1.75-.21,2.63,3.72,2.85.87,1.31-2h1.53l1.76,1.54h5.47l4.16,3.28,1.75,5.48,8.76,1.75,6.79,3.72h7.66l4.6-3.5.22-3.95,2.85-2.4.44-3.51.65-1.31,1.54,3.28,1.53-.22,1.53-1.53,1.54-.22,2.19,2.63v2l2.19,1.1.43-2.19,3.29-3.51,2,.22.66,1.53,4.81,5,7.89,1.75,10.29,5,6.57.87,1.31-.87,14.89-2,11.61-5.48,2.63-4.16,6.57-.65,2.84,1.31,2.41-.66,3.07-10.29,5.25-7,3.95-1.09.43-1.75,3.73-1.75,1.09,1.53,7.23,1.31,2.63-1.75-.22-3.94L370,268.9l1.31-5-5.05-6.73-.32-3.77,6-7.85L370.34,243,365,239.23v-4.4l1.57-1.57.94-5.34L370,225.1,369.4,221l-3.77.31-4.71-4.4,1.57-4.71,1.88-3.45-.31-4.71-1.57-.31-4.71,1.88-5.34-2.2-15.7-9.73L333.92,189l.94-7.54,4.71-5.34,2.51-5.33-1.57-5-6.91-.94-9.42.63-6.91-1.57-5.33-6.6-1.57-6,2.51-6.6-.94-6.28-3.77-3.76L306.91,130l4.71-3.46h3.77l3.14-2.2-2.83-3.45h-3.45L308.17,118l-.62-6.42-5.5-1.17-1.63,2.25-1.63-1.23-5.5.21-4.89,5.7-2.24-.61-.62-3.87-2.85-.41-5.09,3.26v3.47l-3.47,3.26-.2,6.11-3.26,3.06h-2l-1.22,4.28,2,1,.62,4.08-2,2-.21,2.65,1.63,1,.62,3.87-1,1.23-.41,4.69-9.78,12-5.3,1.22-1.23,5.3-2.44-1.42H245l-1.43,2.64-3.06,3.67-4.07,1.84L232.15,185l-.21,1.43-3.46-.41-2.86,3.26-.4,4.08-6.12,3.66.41,3.26-1.83,4.49H213.4l-1.63-3.47h-1.23l-1.42,1.84-6.32.81-2,2-9-.41-1.22-2.24-4.28-.41-5.5,2.25-4.9-.82-1.83,1.43L171,206l-6.11-4.48v-4.08L161,192.57l-8.36-.61-2.85-6.12s-3.47-3.05-4.69-3.05-10-.82-10-.82l-13.25-12.43-9.37-11.42-13.86-4.89-7.13,2.86-.82,6.72-3.06,3.06-.81,3.26,1.43,1.22v1.43L86,172l-4.28,5.71-3.87,2.24v3.87l-7.74,7.14v8.56L64,205l-4.48,11.21.2,5.91L62,223.55l1.43-1.63,11.82.41,1.43-1.23h2.24l5.1,7.14-.41,1.83-2.86,2-1.22,12.43-1.42,1-.82,1.63,2.24.61-.41,3.26-2.24,9-1.22.61-1.84,4.49,2.65,1.42.21,4.89L72,280l-7.13,2-4.89,5.51-1.63,5.91-1.84,1-9.58,1-8.35,4.28-1.84,9.79.41,7.74-2.45,3.06L26.7,322.6l-2.65,2H17.53l-1.83,2.45.2,6.72-.41,2L12,337.68l-1.22,7.14,3.46,1.63,1.22,8.15,1.43.61-2.24,1.84.2,1.42,2.86.41v2.65l-3.26,3.26-2,.2-3.06,2.86H5.92l-2.45,2-.56,4.92,1.13,2,6.82.82L12.22,376l1.64,3,5.72,2.45,1.64,3.82,2.72,2.45v2.46l-1.63,1.36,3,6.81,6.82,4.91,5.45,6.27,1.64,7.9L37,425.6l1.36,5.18,6.81,4.63,4.64,7.91,3.27,5.45,3.81-.54,2.46-6.55,3.81-2.18,6,2.18.27,8.45,2.18,3,10.09,1.37,4.91,4.36,6.26.54L94,463.49v9.27l-1.36,1.91.82,7.9,5.18,6-1.36,10.36-1.91,1.63.54,7.09,4.09,5.18.82,3.81L106.26,530l2.73,2.73.27,7.36,2.18,2.18-.27,3.54L109.53,548l.82,11.45,7.09,8.45-1.37,6.54-3,1.91.27,4.09,1.63,4.9L112.8,597.6l7.09,6.81v7.09L117.71,614l1.09,8.45,6.54,7.91.82,5.45,7.36,7.63,3.81-1.09,9,7.36,4.36,1.91,1.64-3.54,2.45,1.09V651l7.9,8.17.28,2.73,4.36-.82,1.36,2.18-.27,2.18-2.18.82-.27,6.54,3,1.91.28,6.54-2.46,1.36.28,9.55.93,3.49,5.08.56,6.42,5.83,5.83-.3,3.21-6.12,6.12.88.87,1.16,5.83-1.16,2.92-5.54,9.33-6.71,4.95.29,2.92,3.5,5.25-4.66h4.37l5.25,3.2h7.87l15.16,14.87,4.66.59,2.33,4.08,7.88-5.83,2-3.21,9.91-4.66,4.37,2.33,1.17,2.62,2.91.29,9.33-9.91V683.7l16-4.37,4.37-2.92,5.25,2.92,2.62,4.66,12.83.29,4.95-1.46h13.42l15.74,3.5,6.41,7.87,3.5,2.63,3.21-4.08-.59-2.34-4.37-2.91,2.33-5h4.08l7.88-1.45,2.91,2.33,4.08-3.79,1.46-5.25,5.83-2.33,1.17,1.75-.29,5.24-1.46,2.63.29,5.25-5,3.79v5.24l-3.79,2.63-.58,2.62L401,705.27v5.4Z" transform="translate(-2.51 -110.03)"/></g></svg>