<svg xmlns="http://www.w3.org/2000/svg" viewBox="0 0 735.07 830.72"><defs><style>.cls-1{fill:#c22a39;}</style></defs><g id="Acandi"><path id="path5306" class="cls-1" d="M798.11,739.58l5.12-1.27-3-7.81-10.77-7.82-10.17-6-5.39-10.82-3.59-1.21-3-5.41,1.2-7.21-4.51-8.1-8.38-2.4-3.58-4.21-5.39-.6-7.78-10.82,1.2-6.62-5.48-15.35-5.38-.6-2.4-6.61-4.18-1.21v-3.6l3.58-1.81.6-11.42,4.79-4.21v-2.41l-10.17-6.61h-4.19l-7.18-12-6-1.21-3.59-6,1.8-7.21-6-6.62-1.19-9.62-5.39-4.81-7.77-.6-8.28-3.89L663.52,548l-3,1.2-3-7.21h-5.39l-12-11.43-7.18-12-10.17-3h-3.59l-5.38-4.81-13.2.78v-5.41l-13.76-2.6-9-4.21-9,.6-26.44-17.24-12.16-11.21h-16l-46-34.4-4.51-15.86-8.78-21.39-26.57-17.63-9.47-8.43.24-13,11.38-5.94L432,338.57l-2.29-13.78L414.8,312.16l-3.43-13.77,1.14-20.66-17.14-31-14.86-12.62L353,215l-8.65-19.29-18.22-11.66-.56-15-26.3-28.7-18.87-18.71,4.75-17.47L281,88.77l-12.09-13-23.2-7.68,5.57-11.44L249,49.74l6.86-9.19-1.14-6.88,6.86-2.3-3.43-9.18-10.29,3.44-8-4.59V10.71l-5.34-2.64,2.27,29.15,9.73,8.93v8.12l-9.73,6.5-1.62,17.86,10.54,13v15.42l-11.35,5.69-13-10.56h-8.91L197.84,82.69l-5.68-.81L170.28,95.69h-5.67l-3.25,25.17L186.49,155l-5.67,8.12H171.9l9.73,17L195.4,194l-5.67,13H170.28l-8.1-9.75-9.73,2.44L146,214.25,160.55,237l-.81,7.3H141.1l-2.43,8.94-9.73,4.87-12.15-11.37L111.11,250v13L99,268.66l10.53,12.18-4,8.93.81,34.11L92.47,334.43l.81,12.19-15.4.81-9.72,7.3,17,14.62,2.43,26.8,10.65,5.63L99,421.4l-11.35,8.93,5.67,4.87v6.5l17.83.81,6.49-9.74,17-1.63,30,12.18,10.54-.81,25.94,55.22,4.86,26.8,13.78,6.5,2.43,13,14.59,21.11L249,566l10.54,13.8-.81,25.17-8.1,10.56L249,626.85l8.92,11.37v5.68l-10.54,7.31-9.72,15.43,20.26,2.44,12.16,17-2.43,8.12,7.29,6.5-8.1,9.74v17.87l-11.35,8.93L266,748.66l10.53,34.11,7.3,2.43,20.26,21.93-8.11,17,15.4,14.62,25.94-2.44,3.24-12.18,30.61,11.38,12.61-12,7.2-1.2,6.61,4.8,6-4.2h4.2l4.2-2.4,10.81,12.61,8.41,1.2,4.2-6h9l4.2,4.21h6.61l7.21-7.21,4.2,3,13.21-5.4,1.8-8.41,16.82-11.41,4.2-7.8,13.21-9,6.61-.6-.6,12,3,3,9.61-6.6,6.6-6h21l7.81,10.21,9.61.6,4.8-4.2,9-.6.6,4.2,37.83,3.6,12.61,1.8,5.41-7.8,5.4-1.8,3.6,6,16.22-2.4,7.8-7.21,24-111.09,5.4,13.81,21.62,22.82,24.62,15.61,2.4,9v9l5.41,9.6,13.21,4.21,7.8-9L797.83,747Z" transform="translate(-68.16 -8.07)"/></g></svg>