<svg id="Capa_1" data-name="Capa 1" xmlns="http://www.w3.org/2000/svg" viewBox="0 0 779.78 829.58"><defs><style>.cls-1{fill:#c22a39;stroke:#656565;stroke-linejoin:round;stroke-width:0.8px;}</style></defs><path id="path5203" class="cls-1" d="M44.85,760.68l14.9,15.92,10.5,3.72v12.19L76,798.27l5.08,1,9.48,12.19,14.91.68,2,9.82,15.24,9.14.34,6.78,4.4-.68,7.79-7.45,19,.67,2.71,3.73h6.43l2.37-4.06,1,4.06,17.95-1,5.42-5.75,4.4-.34,20.66,6.09.34,6.44,14.9-2.71,4.07-7.11h5.42l21,.67,5.76,7.79,6.78-1,9.14-8.13L309,830.44l10.37-9.52L333.85,822l16.35-9,21.37-26.19,8.61-6.29,8.23,1,15.1-25.13,4.39-21.7,8.62-1.46,4.32,1.69,17-4.49,21.52-15.73,12.23-23,2.31-14.9,9.9-13,17.5-6.18,11,3,27.28-15.09,20.77-1.1,6-7.46,28.86-10.53,15.65-12.32L612,601.85l6.39-5.11,2.72-12.55-7.47-6,11.58-22.11,23.22-15.21L648.1,530l16.23-22.47,7.49-30,7.5-6.87V459.48l-2.5-8.11,9.36-23.1,3.75-6.25,1.25-9.36,8.12-7.5H703l22.48-10.61L748,385.81l25-12.49,10-11.87,2.49-15-1.87-16.24,5-8.11,1.25-10.62,4.37-3.74h6.24l6.24-5,7-1.39,1-15.54-10.31-32.21-43.79-21.91-12.87-21.9,2.57-14.17-6.44-24.48-6.44-21.9,16.75-23.19,9-30.92L751,65.35l-12,2.44-14.54,1.53-35.6-5.74-11.1-2.3-2.29-5L666.64,59V70.47l-9.95,6.89-16.84,3.06-2.68,3.83-24.11-.38L611.53,80l-8.8-2.68L589,80.8l-1.15,8.42L575.17,99.56v10.33l-5,1.92-6.12-6.51-26.79,3.44-18,17.61-4.59,18-9.57,8-7.27,2.29-2.68,7.66-11.87,4.59-32.53-1.15-3.06-1.53L442,166.16l-10.38-4.95v-4.45l5.79-3.56,1.33-10.68-7.12-2.22-.44-4.45,8-3.56.89-5.79-5.34-2.67-5.79-12.46-.44-12.9-3.56-7.12-4-25.81-8.45-13.8-13.35-4L386.21,36.17l-4-15.13L365.3,13l-.89-2.22-9.79,1.33-10.23,6.23-1.34,9.79L332.82,34l-12.91-1.34-9.79,4.23V42.4L315,46l12-3.11L336.82,54l.89,5.79,6.23,1.33,15.13,17.36L356,88.24l-3.12,3.11.45,5.34,4.45,1.78v5.34l-17.8,5.78-4,4.45-13.35,1.78-.89,25.37L319,144.75s-1.78,8.9-2.22,11.12-31.15,20-31.15,20l-16.91-1.34-1.33-4-15.13-.45-8-6.23-7.57.45-5.34,7.12-15.13-3.12L206,172.78l-6,9.62,1.88,13.15-.84,9.18-12.51,11.68-6.67,2.92v5l7.51,5.84L189,243.1l10.84,25-6.25,6.68.83,4.17,3.75,4.17-1.25,8.76-9.17,9.17-2.51,8.76-11.68,10.85-4.58,1.67-5.84,6.26-.95,11.5,22.24,13.12,3.05,10.84-3.39,3.38-.34,10.84,8.81,6.78,2,6.77L181.34,400l-4.06,14.56,3.39,11.18,6.43,4.06,4.74,19.65L204,463l-.68,16.6L183,495.15l-8.81.68-10.84,6.09L158,496.5l-22.69,13.89-18.63-.68-10.49,6.78-.68,25.4,8.13,6.43-2.71,3.73v7.79L104.12,570l1.36,4.07-4.07,15.57.68,4.07L87.87,610.3l-8.47.34-21,13.21-2,7.45,4.06,10.5-3.38,5.08v12.19l-5.76,6.1-1.7,10.5-3.72,4.4-1.36,6.1,3.05,4.74V715.3L36.72,727.49l-1,7.11,6.77,7.11-.34,9.65Z" transform="translate(-35.31 -10.41)"/></svg>