<svg xmlns="http://www.w3.org/2000/svg" viewBox="0 0 733.07 833.56"><defs><style>.cls-1{fill:#c22a39;stroke:#656565;stroke-linejoin:round;stroke-width:0.8px;}</style></defs><g id="Cantón_de_San_Pablo"><path id="path5381" class="cls-1" d="M683.72,364.61l-7.29,1.68-2.8,4.48,16.81,15.13,11.77.56,6.73,11.21-5.05.56,5.61,14,16.81,16.25,10.09,3.36,3.93,3.93v20.73l5.6,6.17,8.41,5.6,10.09,11.21-7.85,1.12-2.8,7.85,12.89,11.21,13.45,14.57.56,12.33,9,9-2.24,21.86H684.84l-50.44-7.29-5.61,10.65h-8.41l-6.72-7.85-11.21-.56-31.39,16.82L569.94,577l12.89,1.12,5,9.53,12.33,5.05,26.9,3.92L640,609.53,642.8,623l2.25,11.77,9,6.17,8.41,18.5,15.13-1.12,7.85,11.21,4.48-2.81,1.12-2.24,16.26-1.12,1.12,17.94,7.85,2.24,5-5.61,16.25,2.25.56,15.13L753.78,725l15.13,20.17,22.42,6.17L715.1,841.58l-48.2-16.82-34.83-6.18L605,819.71s-14.69-3.53-17.63-4.7-78.14-6.46-78.14-6.46l-10,4.11-6.46-2.94,40-92.83-14.1-12.34-15.28,2.35-13.51-4.11-17.63.59-24.08,15.27L415.18,721l-24.67,16.45S358.78,748,355.84,748s-22.91,1.76-22.91,1.76l-14.69,13.52-14.69,2.93-16.45-7.63-49.94-1.76-5.88,6.46h-5.87l-2.35-5.88-7.94-5.87,6.17-14.1,11-17.41,5.86-7.81L244,690.75l7.82-2.61,1.95-9.77-15.63-22.14-4.56-30.61,15-11.07-1.95-8.47-6.51-5.86L244,589.8,270,580l-8.46-49.5,5.86-2.6,3.26-13-23.45-21.49-7.81-.65-12.38-7.16L226.4,470,206.21,458.9l-.65-35.17L175,400.28l-19.87-5.52,7.49-8.68,5.38-.6,10.77-38.89-23.93-28.72-12-1.79-3.59-4.79,6.58-4.78-19.15-22.74-1.79-12.56-10.17.59L80.6,226.93l-16.15-6.58L59.06,202.4l12-19.14,22.74-79,7.18-1.19,2.39-8.38-6-7.18-.6-20.34,7.18-17.35,6-29.92,11-11.1,34.5,15.75L179.9,58.14v7l-6.3,2.8L175,82.62l14,18.88,11.89,2.1,3.5,15.39,5.59,7.69,7.69-2.1,7,10.49,16.78,1.4,7.7-11.19H268l32.17,42,5.6,41.26,9.79,7.7-16.09,3.49-1.4,6.3,7.7,4.89,3.49,15.39,29.38-.7,35,16.78L384.12,261l13.29-14.69,14.69-.7,29.37,18.88,45.46,21,34.27,30.08,19.58,1.4,19.59-13.29L573,295.24l20.33,5.94-2.3,8.13,11.77,8.49,3.27-4.57h9.15l-1.31,5.88,7.19,7.84,6.53-5.23,1.31-5.23,3.92,1.31.65,7.19,8.5,3.27,1.31-6.54,5.88-.65,3.27,7.19-3.93,5.88,8.5,5.23,2-8.5,10.46-1.31.65,11.11,4.58,4.58,6.53-3.92,8.5-.66,1.92,14.45Z" transform="translate(-58.66 -8.42)"/></g></svg>