<svg xmlns="http://www.w3.org/2000/svg" viewBox="0 0 262.45 812.53"><defs><style>.cls-1{fill:#c22a39;stroke:#656565;stroke-linejoin:round;stroke-width:0.8px;}</style></defs><g id="Bahia_Solano" data-name="Bahia Solano"><path id="path5166" class="cls-1" d="M479.68,781.13v-7l-5.08-7.62H461.9l-5.08-3.81L460,755.1l2.54-7.62-3.18-3.17.64-3.18,8.25-9.52,3.18-4.45,10.16-1.9L486,717l3.17-5.08,1.27-12.06,17.15-12.06h15.87l10.16-12.7-4.44-7L530.48,658l-7.62-4.44-6.35-17.78,3.81-8.25L514,616.05l-7-.64-3.17-3.17,1.79-6,.31-6.47,2.16-2.78v-6.16l7.39-5.86,6.17-.31-.62-3.08-3.7-2.16h-7.7L504.06,576l-.31-5.54-3.08-2.78-10.17-.92-3.08-6.17-7.4-2.15L479.4,556l-5.54-2.77L452,554.1,446.43,560l-6.17-2.16L435,542.39l-12.64-6.47-.92-6.17,3.7-5.24,7.7-1.85,7.71-9.55,1.54-.93-.31-2.46L434.71,494v-9.55l8-11.72,10.17,1.85,1.85-1.85-.93-10.17-2.46-2.46v-8l1.23-3.08-2.16-6.47-14.18-11.41L431.94,424V418.8l3.39-2.47-.92-2.77h-5.86l-4.62-4.32-.62-4L415.6,400l.31-3.39,1.54-.62,2.16-5.24,5.55-.31,2.46-4.62.93,3.39,13.56-1.85.31-1.85-6.17-8.63-.92-8-5.55-1.24-1.85-3.7,1.54-2.77,1.85,2.47,6.48-.93,4.62-4.31-1.54-8.32-10.48-5.86-.31-7.09,2.16-1.54-.62-3.39-7.09-3.7.62-4.62,3.39-3.08-.93-4L423,314.31l5.24-6.78,6.78-2.16.62-11.4,4.31-3.39,1.24-8,4.62-4.93-.62-3.4-5.55-.92-2.46-2.77-.31-8-2.47-4,1.24-9.56-3.39-5.24-11.1-2.46-1.23-4,1.54-.31,2.47-5.24-2.78-4h-5.24l-2.16.93H411l-7.09-4.93-.31-9.56,2.16-2.77-5.24-5.24H394l-10.17-6.47-1.23-2.16-4.63.62-2.15,3.7-4.63-4.63L370,187.33l-2.16-1.54-.31-2.16,4.32-2.16,1.23-9.86,4-.31,5.55-9.86-1.24-3.7-2.46-1.23.31-4.32,5.54-4.31-1.23-8.94-4.62-2.77-.93-2.78,3.08-5.24-1.84-4.62L372.76,122l-1.23-.93-4,.62-4.93-.92L361.05,114l-1.85-1.24-.61-2.15,3.69-3.09-1.85-1.23.62-4.31h5.55l1.85-1.85,8.63-.62,2.46-2.77,2.78,2.77,2.77-1.23,3.7-6.17,3.7-2.15,11.09-16L402,66.51l2.47-3.7,4.93-.61,6.47,5.85,13.26,1.24,1.23,3.39,5.24-1.55V66.2l6.16-3.39,1.4-2.67-1.05-.4-7.39-.26-3.05-2-.25-2-18.33-16-1.27-1.53-2.8-.51-1.28-3.06.51-2.79-8.14-8.4-4.84-1L394,17.66l-7.37.42-5.29,5.09L375.2,31l-6.87,4.32-11.2,1.53-14,12.73.51,4.83-3.31.77-1.52-3.31-9.17,3L324,61.52h-1.52l-4.84,4.84.76,8.14L322,77.3l-1.78,3-1.53-.25-13,7.38-2.29,7.13-2.8-.77-6.11,3.06-1.78,6.36-3.06,1,3.82,3.31-2.29,1.78-3.56.51L284.08,114l-1,9.53,2.71,0,11.76-3.77.57,2,21.51.58,12.62,9-1.15,2.9,1.72,6.37,2-1.45h3.73l1.72-1.73,1.14,2.31,7.17,2.9,1.15,2,6,4.05.57,1.74-5.44,5.51-.58,6.95,3.44,4.05.86,4.06-7.45,6.95-.86,4.93,3.44,5.79,3.15,2.32,1.15,12.46,6.31,4.34,10.52,4.35,4.9,7.72,8.54,1.14,2,5.8-5.17,7-.28,5.8,6.59,5.21,18.07,3.19,6,4.05L422.47,267v4.05l1.43,1.45,2,6.09-7.75,16.51-.28,13.33-3.73,7.24L407,325.46l-7.27,3.64-8.49,4.75-3,7.75,2.88,4.85,5.86.36,5.58,9.2-4.28,8.76-6.46,2.58-3.17,8.14,4.34,8.39-4.69,3.26-.21,7.11-9.57-.29L376.07,398l3.54,3.83h3.73l4.87,8.41,8.32,8.11.86,4.63-2.87,3.48L392.8,430l-12.11,4.75-4.3-2-2.29-3.48h-3.16l-9.74,6.37H349.73v-2.31l-2.58-.29-4.88,5.21v3.48l4,1.74h3.16l4.59,5.79h4.3l3.44,4.93,5.45.57,2.58-2,4.59-.58.57,1.74,4.87.86.86,7.25,1.72,1.45L383,466l-2.87,1.74v15.72l-6.55,4.26L373,515.9l-5,8.19v10.28l2.87,7-2.3,3.47L362.41,557l-7.55,11.12-2.3,2.31,3.76,4.92v11l-8.05,6.22-9.46-1.92-3.27-9.46-6.75-8.87-5.4-16.09-8-5.44-15.62-.48-5.2-4.78-3.79-9.56v-4.78l-5.21-5.26-2.36,1,.94,7.65-2.84,11,5.21,19.13-7.45,6.12.12,35.56L272,625.53v5.74l4.73,8.6L281.47,658l14.19,23.43,12.19,6.75,3.79,9.56.12,5.69,1.89,3.35h2.84l13.25,19.12,20.83,14.83L351,747l9,6.22,9,20.08,5.39,26,9.84,12.76,10.66-5-13.11-7,2.55-3.63-4.75-8.67,1.23-7.3-5.65-14.35-1.9-14.6,3.32-6,14.2,24.87,9.13,11.07,5,11.62-2.62,10.72,8.7,7.33,7.29,14.9,6.13,2.28,4.92-4.74,7.37.17.88,3.51,3.51,2.11,1.93-2.28-2.1-3.69,1.93-10.18,6.5-11.59,4.39-1.58,8.42.52,6.33-7.9,4.21-2.46,4.49.3Z" transform="translate(-271.6 -17.26)"/></g></svg>