<svg xmlns="http://www.w3.org/2000/svg" viewBox="0 0 625.22 831.56"><defs><style>.cls-1{fill:#c22a39;stroke:#656565;stroke-linejoin:round;stroke-width:0.8px;}</style></defs><g id="Bojaya"><path id="path5208" class="cls-1" d="M368.41,818.18l-.93-3.27-4.2-1.17-5.6,5.6-4.67-.46-6.07-7.7-4.9-.47-2.8-3.73-4.67.93-.46,4.67-7.94,9.33L325,827l-10,5.84-1.86,2.33-.47,2.8-2.33,2.1-8.4.47-1.87-2.1L289.77,838l-1.17,1.87-4.2.7L273.67,835l-12.37.23-.7,1.64-3.5-2.8-6.38-2.24,2.69-9.44v-7l-5.08-7.62H235.61l-5.08-3.82,3.17-7.63,2.55-7.63-3.18-3.18.63-3.17,8.27-9.54,3.18-4.45,10.17-1.91,4.45-8.26,3.18-5.09L264.22,741l17.17-12.08h15.89l10.17-12.71-4.45-7L304.27,699l-7.63-4.45-6.35-17.8,3.81-8.26-6.36-11.45-7-.63-3.18-3.18,1.8-6.06.31-6.48,2.16-2.78v-6.17l7.4-5.86,6.17-.31-.61-3.09-3.71-2.16h-7.71L277.82,617l-.3-5.56-3.09-2.77-10.18-.93-3.09-6.17-7.41-2.16-.61-2.47-5.56-2.78-21.91.93-5.55,5.86-6.18-2.16-5.24-15.43L196,576.84l-.92-6.17,3.7-5.25,7.72-1.85,7.71-9.57,1.55-.92-.31-2.47-7.1-15.74V525.3l8-11.72,10.19,1.85,1.85-1.85-.93-10.19-2.47-2.46v-8l1.24-3.08-2.16-6.49-14.2-11.41-4.32-7.1v-5.25l3.4-2.47-.93-2.77h-5.86L197.59,450l-.62-4-7.71-5.24.3-3.4,1.55-.61,2.16-5.25,5.55-.31,2.47-4.63.93,3.4,13.58-1.85.3-1.86-6.17-8.64-.92-8-5.56-1.23-1.85-3.71,1.54-2.78,1.85,2.47,6.48-.92,4.63-4.32-1.54-8.34-10.49-5.86-.31-7.1,2.16-1.54-.62-3.39-7.1-3.71.62-4.63,3.4-3.08-.93-4L196.66,355l5.25-6.79L208.7,346l.61-11.42,4.33-3.4,1.23-8,4.63-4.94-.62-3.39-5.55-.93-2.47-2.77-.31-8-2.47-4,1.23-9.57-3.39-5.24-11.11-2.47-1.23-4,1.54-.31,2.47-5.25-2.78-4h-5.25l-2.16.93h-2.77l-7.1-4.94-.31-9.57,2.16-2.78-5.25-5.24h-6.48l-10.18-6.48L156.24,238l-4.63.62-2.16,3.7-4.63-4.63-1.24-9.88-2.16-1.54-.31-2.16,4.32-2.16,1.24-9.87,4-.31,5.56-9.88-1.24-3.7L152.53,197l.31-4.32,5.56-4.32-1.24-8.95-4.63-2.77-.92-2.78,3.08-5.25-1.85-4.63-6.48-1.54-1.23-.92-4,.61-4.93-.92-1.55-6.79-1.85-1.24-.61-2.16,3.7-3.08L134,146.65l.61-4.32h5.56l1.85-1.85,8.64-.62,2.47-2.77,2.78,2.77,2.77-1.23,3.71-6.17,3.7-2.16,11.11-16.05-1.54-7.41,2.47-3.7,4.93-.62,6.48,5.87,13.27,1.23,1.24,3.4,5.24-1.55v-4.94l6.18-3.39,1.5-3,3,.62,3.33-2.49,4.16-.28,2.77-2.49,5.55.27,3.6,2.5h1.67l3.88-5.83,6.93-1.11L253,87.19l4.44-4.43,8.6-1.67,5,2.5,8.6,4.71,5.27-1.94L287.37,88l10.82-.56,6.66,1.94,1.38-2.22,2.5,1.11,4.16,3.89,5.82,1.11L324,95.79l4.44-3.33V85l3.05-3.61,1.11-10-1.66-10.27-2.78-4.71.56-13.87,6.93-8.32h6.1l4.44,3.33,44.38,14.7.83,5.82,2.5,2.5,2.77.83v3.33l-3.33,4.71L396.65,75l4.16.28,4.16,5,1.11,3.61,6.1.83L418,89.14l5.27-8.6-1.67-1.94,3.88-3.33,8.88-.55,6.1-8-1.39-3.05,2.22-1.39,2.5-5.54,4.71-4.16h3.61l10-2.5,4.72-4.44h5.27l4.16,3.89,11.65,3.05,5.27-.83v-2l4.16-4.43,5.27-2.22,6.65-6.38,18.59.55,5.27,5.55,2.22-.28,3.6-5.54.56-3.33,6.65-6.38,9.15.83,6.11-2.77.55-2.22,3.33.28,2.22,2.21L580,24.79l1.39-2.22,19.69-10.26,1.66-2.5,7.49,3.33,2.77,5-.55,2.49L610.49,22l-3.59,5.13-9.12,11.2-1.35,13.2-5.76,7.11h-7.44l-4.74-6.43s-15.23,1.69-17.6,3.05-9.82,8.8-9.82,8.8l.68,9.81,13.54,1-1,8.12-7.11,8.81,3.73,8.8-1.36,18.28-3,2.37-2,3,7.79,10.5-.29,8.33,7.88,3.7,14.1-1,3.64,7.33,1.64,5.21-3.33,5.34-7.51,6.73-5.73,8.71-9.25.86-1.66,5.54-1.05,7.21,8.25,4.88,6.57-4,5.76-4.7,4.83,4.49,1.06,10.18L586.09,211l5.51,12.09,5.88-.59,5.13-4.16,1.69-9.67,10.38-9.54,7.41-.22,2.33,3.19.22,11-11,11.67-2.41,9.29,8.72,8.6,11.86.34,19.41-4.19,11.73,7.59,1.18,7.42-4.58,7.21-16.22-4.53-15,11.79L623,282.92l1.59,8.71,10.48,16.25,6.78,1.91,2.78-6.7,6-4.72,9.32-.13,5,6.83,3.34,5.85L675,315l-3.18,14.84,2.33,12.3,6.57,5.73,6.89,0,8.7-5.87,5.17,4-1.7,6.49-2.18,5.86,2.78,14,.63,5.72,3.6,1.7,5.72-8.27,4.16-4.67,1.08-5,5.39-1.44,5,4,1.43,6.83,7.91,4.67,8.63,4,9.35,11.5-3.6,11.5-2.87-.35-2.16-5.76v-5l-2.87-.72-4.68,4.31.72,10.43-5.75,6.83L726.75,419l-1.44,11.87,7.19,3.59,9.7-.72,5-6.11,6.11-.72,3.23,5.39v8.27l-6.11,5.4-10.06.71-4.68-3.95-4.67-.36-5.75,3.24-1.08,8.62,3.95,4.32L740.05,464l11.5,5.39,3.24,7.91-.36,2.88-5,5.39h-8.26l-7.55,1.8.36,6.47,10.78,1.8,4,5.75-2.88,6.47-5,1.8-6.83,3.23-4.3,7.58-6.3-1.17-1.87,2.57-1.86-1.4-6.3.23-5.6,6.54-2.57-.7-.7-4.44-3.27-.46-5.83,3.73v4l-4,3.73-.23,7-3.74,3.5h-2.33l-1.4,4.9,2.33,1.17.7,4.67-2.33,2.33-.23,3,1.86,1.17.7,4.43-1.16,1.4-.47,5.37-11.2,13.77-6.07,1.4-1.4,6.07-2.8-1.64H658l-1.63,3-3.5,4.2-4.67,2.1-4.9,3.73-.23,1.63-4-.46-3.27,3.73-.46,4.67-7,4.2.46,3.73-2.1,5.13h-4.9l-1.86-4h-1.4l-1.64,2.1-7.23.93-2.34,2.34-10.26-.47-1.4-2.57-4.9-.47-6.3,2.57-5.6-.93-2.1,1.63-3.5.23-7-5.13v-4.67l-4.43-5.6-9.57-.7-3.26-7s-4-3.5-5.37-3.5-11.43-.93-11.43-.93l-15.17-14.24-10.74-13.06-15.86-5.6-8.17,3.26-.94,7.7-3.5,3.5-.93,3.74,1.63,1.4v1.63l-2.56.23-4.9,6.54-4.44,2.56v4.44l-8.86,8.17v9.8l-7,6.3-5.14,12.83.24,6.77,2.56,1.63,1.64-1.86,13.53.46,1.63-1.4h2.57l5.83,8.17-.46,2.1-3.27,2.33-1.4,14.24L466.89,674l-.94,1.87,2.57.7-.47,3.74-2.56,10.26-1.4.7-2.1,5.14,3,1.63.23,5.6-5.36,9.8-8.17,2.33-5.6,6.31-1.87,6.76-2.1,1.17-11,1.17-9.56,4.9-2.1,11.2.46,8.86-2.8,3.5-9.1,2.57-3,2.34h-7.47l-2.1,2.8.23,7.7-.46,2.33-4,2.1-1.4,8.17,4,1.86,1.4,9.34,1.63.7-2.57,2.1.24,1.63,3.26.47v3l-3.73,3.74-2.33.23-3.5,3.27h-4l-2.8,2.33-.58,6Z" transform="translate(-131.77 -9.41)"/></g></svg>