<svg xmlns="http://www.w3.org/2000/svg" viewBox="0 0 836.85 444.91"><defs><style>.cls-1{fill:#c22a39;stroke:#656565;stroke-linejoin:round;stroke-width:0.8px;}</style></defs><g id="Capa_16" data-name="Capa 16"><path id="path5178" class="cls-1" d="M843.22,215.42l-15.14,5.73-1.64,5.73h-4.91L809.66,242l-.41,15.15-6.55,6.55v2.45l-3.28,4.92-6.95-.41L790.42,274,787.14,278l-9,.82-3.28,2.87,2.46,2.45-6.55,9-5.73.41L754,301l-8.19,1.22-4.09,3.28-.41,10.23-3.68.41-19.24,22.1-6.55,2.05-1.64,4.09-14.73,5.73L693,362l-4.5,3.28h-9.42l-18,12.69L653.7,389l-1.22,6.14L641,394.29l-14.74.41L621,399.2l-4.91,11.46L608.68,416v6.54l-2,2.05-6.14-1.23-5.73,3.28-.41,5.32-2.45-2.87-2.87-.41-4.5,3.28-2.87-3.68-3.68.81-1.64,3.69L562.84,434l-4.1,1.63-16.37-5.32-.41-2.45-6.55-.82L533.77,432l2.05,9,4.09,2-1.22,4.91-8.6,7.37L524.77,459l-4.1,9.82L521.9,470l3.28-.82,1.63,2.45-2.86,4.1-10.64,4.91-11.87-.82-4.1,5.73-1.63,8.6-20.47,13.91-9,2.46-9.83,1.23L452.73,515l2.86,2.46,4.51,2,2.45,11.06-2.45,7.77-7,2-13.51.41-6.14,2.87-5.73,4.09-4.91-1.64-4.51,3.68-9.82.82-2.45,3.69,2.45,1.63-8.59,9.42-6.55-2.87-10.24,3.28-3.68,3.68-10.23-2.86-4.1,4.09-2.86,5.73h-5.73l-4.91,2.87-7.37-.82-3.28-.41-.41-5.73-14.73-3.28-2-2.86-7.78,4.5-1.22,5.73,8.59,4.5,2.46,9-7.37,2.86-8.6,19.24v5.32l-5.73,4.91h-3.68l-7.78-4.5L273,621.06l-11.47,6.14-5.73,7.36-16.78,1.64-6.14-4.91H221.05l-11.87,7.78-2.05-2.87h-6.54l-2.46,5.73-4.91.41-3.69-4.5-9.82-.41-7.37,4.09-4.09,5.73-4.5-2.45-11.87-13.92-1.64-6.55,2.86-2.86-3.68-7.37L137.55,610l-11.87-1.23-2.86-7-.41-5.32-8.6-10.64-11.87-5.33-9.41-9.41v-4.5l-6.14-5.32-6.14-1.64-4.92-25-.82-15.14L76.15,513l-5.32-3.28-1.64-6.55,8.6-7.78L77,489.22l-4-2.78v-6L77.85,479l.86-4.29-2-1.43-.28-8.3,5.72-2.57-2-3.15L85.57,453l1.72-.29.86,6.29L93,461.26l4.58-3.43h3.72l1.15,2.57L101,452.11H97.31L97,449.82l4.29-1.15.57-9.73L99,436.37l-5.15,4.29-1.14-5.43-2.86-3.15.28,4.86-6.87,4.58-3.14-10-3.44-2-2.57-7.15h3.72L79,419.2l-4.29-2.57,2-3.72-9.44-3.15-1.14-2L61,412.62l-2.87-5.15,4-4-1.14-2,3.72-1.14-2-2.86-4.58-.86L51.81,400l-10.59,1.15L37.79,396l-10-2-1.43-4.58,1.72-1.14-2-.57-7.44,6.86.57,4.58-8.3,13.74-3.15-.86,1.44-4.87-2-3.43,1.72-4,3.43-.86-1.43-3.44.57-4,4.87-2-2.86-4.29.57-7.72,3.43-2.86L14.9,371.7l.57-8.58,12.3-10.3,2-6.29-3.72-4,2.29-4,3.43.29-1.72-4,1.72-2v-2l-3.72-2.86v-6.87l4.58-2,1.43-8,3.15-1.72.57,7.72,3.15,3.15v-2.86l4.86-2.29-.86-8-2.86-2,.86-3.15,7.73-3.15L51.81,289l7.44-7.44L63.83,269h3.43l.57-3.14,3.72-.86.58,3.43,8.29,10,3.15.85L85,276.71l2.29-.29,3.43,4.87,3.72,1.14,1.72-2.57h2l2.29,2h7.16l5.43,4.29,2.29,7.15,11.45,2.29,8.87,4.87h10l6-4.58.29-5.15,3.72-3.15.57-4.58.86-1.71,2,4.29,2-.29,2-2,2-.29,2.86,3.44V289l2.86,1.43.58-2.86,4.29-4.58,2.57.29.86,2,6.3,6.58,10.3,2.29,13.45,6.58,8.58,1.15,1.72-1.15,19.45-2.57L254.11,291l3.43-5.44,8.59-.86,3.72,1.72,3.14-.86,4-13.45,6.87-9.16,5.15-1.43.57-2.28,4.86-2.29,1.43,2,9.45,1.72,3.43-2.29-.29-5.15,4.87-2,1.69-6.46,14.75,3,8.05,4.17,3,.23,2.76-2.3L345.2,254h5.52v-4.37l3.46-3.46-3.23-2.3,6.68-3,1.61,1.84,4.84,2.53,1.61-4.14,3,.69.92,2.76,2.07.92,3.92-2.53h5.76l2.07-1.38h2.76l2.3,4.37,7.6.23L402.3,243v-4.38l12.2-5.52.46-3.69,1.84-.92,2.08,1.61,4.37-.46,1.61-4.14,13.59-5.3.23-3.45,3.68-.92.92,4.14,6.22,7.14s1.84-3.22,3-3.22,8.29-1.15,8.29-1.15l1.38-3,2.31-1.84.92,2.76,6,5.76,6.91-.46,5.76,6.22,11.28,2.07.46,1.15,14.05.23.92-1.84,2.53-.46,1.15,1.15,14.28,2.07,4.83-2.3,5.76-.23,4.83,6,20.27,2.31,10.82,7.6,2.07,4.83,7.6,1.84,3.68-3.68-3.45-7.14,4.83-6,5.07-1.38,14.05,7.6,13.58,1.38,3-2.76,4.15-.92.69,3,13.58,3.92,16.58-5.76-.92-5.06,1-3.84,6.38-6.8,27.57-9.54,8-.11,4.94,2.12,9.42-.26,7.93-3,12.76-1.06,10.13.53,5.42-6.33,12-.35,9.45,2.54,15.92-.41,7.62,6.55,7,1.28,10.39-7.66,8.4-8.84,7.4-1.41,4,4.74,7.22,1.76Z" transform="translate(-6.77 -202.74)"/></g></svg>