<svg xmlns="http://www.w3.org/2000/svg" viewBox="0 0 589.18 834.02"><defs><style>.cls-1{fill:#c22a39;stroke:#656565;stroke-linejoin:round;stroke-width:0.8px;}</style></defs><g id="Istmina"><path id="path5189" class="cls-1" d="M612,831.66l-2.61-2.85-3.8-1.66-1-10.45-1.19-.72L599,814.32l-1.66-6.17,2.13-8.08-1.9-6.17-8.31-3.57-3.09-7.12,1-2.61-1-3.09-5.46-1-3.32-6.41-2.85-1.66-1.9-11.17,3.8-4.27H583l3.8-4.27v-5l5.65-3.82-1.68-2.45-2.13-2.13-6.13-2.4-6.66-6.39L570,713l-2.66-14.64-10.12-7.73-6.39-1.06-1.07-1.87-1.33,2.13-5.33-.53-.26-2.4-2.67-1.33-1.06-3.73-8.79-4-6.93-.8-.53-1.87h-4l-1.07,2.93h-4L512,675.73l-2.4-.54-2.39,1.87-5.06-2.4v-1.33h-2.4l-1.87,1.86-3.19-1.33-1.87-4,2.4-.54-2.13-4-3.73-.53.27-2.93,1.6-.54-1.07-4.79H488l-1.87-2.66.54-3.2-3.73,1.6-.8-4.53-3.73-2.93L472,643.5l-.27-1.86-4-1.6,2.39,2.39-4.79-1.59-.8-3.2-2.66-.8,1.33-3.46L458.7,635l-1.33,2.93L455,636l-3.46.8-.27-4.79-2.13-.27-3.46,3.73-5.59-2.93,1.33-4-2.13-1.33-2.93,1.6-4.8-2.66-1.17-4.57-.57,2.09-3.22.56-1.52-.94-.57,2.46-4,1-.75,2.27-1.33-.76-4-1.7-5.11-2.28-2.09,3L409,629l-3.41,2.65-3.6-3.79-.57-1.7-6.26-1.9-.75-1.89-3.22.57-1.52-3.41,1.33-1.9-1.52-.38-3.41,1.9-1.7,4.17L382.8,622l-2.65,5.68-2.09,1.9,2.84,2.27-1.51,2.09h-1.71L376,636.4l-2.65-3-2.28.19-.57,1.7-2.08-.75L367.07,630l-1.7-.76-2.84,2.46h-7l-8.72-7.19-12.32-19.71-5.3-.57-5.12-4.92L321.22,593l1.14-7.39,2.46-2.27L321.41,579l-10.23-4.35-2.53-2.3v-1.69l7-3.18V566l-3.39-3.59-.21-4.66,2.12-2.54,4.87-1.69L329,540.39l.85-4.65,5.07-4.66h1.7v5.29l6.13,4.87,6.56,2.54,7.19,4.86,6.35-4.23,10.15-.63,4.45-6.14-.43-5.29-4.65-2.75-.42-2.53,3-1.7,6.13.43,4.87,5.28.85,5.29,4.86,6.35h6.35l8.89-7.83-.85-7-1.69-.63L403,523.47,400.68,522V520.3l1.69-1.06.64-7.62-1.91-3.81,2.54-4.86L410,500.2l.85-2.54-1.27-4.45-9.95-6.77-2.11-7.19,1.9-6.56,2.75-1.9,1.91-4L402,457.88l-8-7.83-3.81-6.13.42-8,5.29-7.19,2.12-9.31-.85-16.5,3-11.64,7.19-8.25-1.91-2.54-3.8,2.33L399,381.51l-.43-1.27L389,368.18l2.12-6.77,7.19-5.71-.21-8-1.27-2.75,4.66-6.35h4.23l2.11,1.27,3.6-7.83,3.17-2.33-6.13-3.8v-3.18l4.65-1.27,13.75-7.83,2.75,3.81,1.49-.63L432.2,313l1.91-1.69,2.32-7.41,7.2-3.38,6.13-7.41-1.69-4.65-3.38-1.27V285l3.38-1.9-3.17-1.69.84-1.48,6.14-1.7,4.44,3.18,1.06,4.44,2.75.42.63,3.39,1.27-2.33,3.6,1.27-.85,4.44,8.26-5.71,14.17-11.42,7.41.21,4.65,3.81,9.31-.85,1.06-1.48,9.52-4.66,3.59-6.55,1.48-1.27-.42-3.6-3.17-.85-1.06-4.65-3.81-.21-3-3.18-.42-.84-1.91.42-3.8,6.77-6.14,1.69-1.06,2.12-2.11-1.06-2.33-4v-5.29l2.11-3.6,2.54-.21.21-6.13,1.91-6.35,1.48-.42,8.67-5.08.85-4.23,1.06-2.33-.64-13.54-1.69-2.33-.63-6.56-5.5-.21L505,200l2.12-1.27.21-2.32,2.75-2.75,11.64-12.06.84-4,3.39-5.5,2.32-1.49.43-5.28,4.23-1.49,4.65-1.26,3.6-3.81,8.89-5.29h8.67l5.08,1.9,3.17,9.52,7.84-12.65,12.38-10.46,13.34-.47,4,2.34,1.88,3.75,3.51,1.63,8.19-5.85.7-6.31,7.25-4.21.23-4,12.41-13.34,1.87-.47,1.4-2.1,4.45-.7.93.93,7,1.41,3.28-3.51h1.64l.23,1.4,6.08,3.74,4.21-3.74h1.41l3.51,2.57,1.87,2.58h9.59l4.68-5.38,3.51-1.41,2.11-5.85,8.19-3,1.63,2.81,3.51.7,3.28-2.1L714,97.3l-2.81-2.58,6.32-8.89.23-6.32,1.64-.7V74.37h-4.45V73l1.35-2.14-3.09-.27-1.59,2.38-2.7-1.9.8-3.34,2.38-1.12.16-3.81-3.18-11,.16-2.86-3,1.27-3,5.73-8.27,6-.63,3-8.43,4.92-2.38-.32-1-2.22-1.12.48-3.81,9.21L667,83.42,664.41,83l-5.09,5.72L656,89l-2.06,3.18-1.59-1.59-3.34.8-1.59,2.7-1.59-.79.16-4.14-1.75-1-4,1.75-1.75,3.34-4.61-.48V91.69L632,90.1l.16-3.18,2.38-1.75.28-5.83-3.27-.27-4.15-3.84-.15-2.3h-2.3l-.31,1.23-8.14,7.21L615,86.13l-8.14.62L590.69,97.34l-3.53.77-.62,3.22-3.07-1.69-.61-4L574,92.58,571,89.66l.77-1.53,2.61-.46,2.3-3.69-.15-6.6L579,74.92,572,69.09l-10.91-.46-2.3-2.46-.92-7.37-2.46-1.07L554.14,56l-.61-2.77-2.61-1.22.31-2.31,3.22-.3.81-5.42-8.19.13s-4.47-1.07-5.36-1.43-23.77-2-23.77-2l-3,1.25-2-.89,12.15-28.23L520.8,9.12l-4.64.72-4.11-1.25-5.36.18-7.33,4.64-10,.72-7.5,5s-9.65,3.22-10.55,3.22-7,.53-7,.53L459.87,27l-4.47.9-5-2.33L435.21,25l-1.79,2h-1.79l-.71-1.78-2.3-1.89-7.52,3.94-7.05-.44,1.76,4,3.53.66.44,12.34-3.3,2.43v4.4l7,6.83-.89,2.43-1.76.88-1.54,6-2.86,2.64.44,2.64,2.2,1.1.22,11.24,13.44,12.56-.22,4.85-3.09,1.54,1.11,2.2h2.2l2.64,2.64h5.29l4.19,3.75h6.39l3.52,4,1.76-.44,3.09-3.31,7.27.66,3.3,2.65,4.85,1.76-.66,7.27-6.83,5.51v1.76l2.86,1.32-.22,2.86-1.54.23-.66,5.5-2.86,1.33.88,4.18,5.28,1.1,2.43,2.21-.22,3.3h-7.27l-7.93,6.83-3.53,10.14-1.76,1.54.66,5.51,2.2,1.1.22,2.86,2.43,3.31,7.71.44,2.42,2-.66,2.64-4.19,2-4.18,5.72L444,210.12l-3.08,2.21.66,2.42,5.73,3.75-9,13-6.61.44-8.82,5.51-5.06.88-4.19,2.87v4.4l4.19,3.53,1.54,4.85,2.86,3.3L409.43,272h-5.51l-7.05,7.71-.22,1.54,2.2,2.21-2,15.64-2.21,2.2-.66,3.75,1.32,4.19-1.54,2-3.52,1.1L385.41,319l-2.42.22-7.49-9.47-13.88-6.61-6.17-1.32-1.77-2-2.2,3.31-.44,3.52-10.57,12.12h-1.55v4.19l-7.49,6.38-2.42.45-3.53,4.18L314,339l-1.54-.44L304.55,341l-1.42,2.53,6.4,10.58.92.31v3.41l-5.56,3.4,1.54.62-.31,5.88L303,370.81l-5.88,14.85-9.9,2.17-4.95,11.44,1.86,1.55,3.71.31,5.26,5.26,13.3.31,2.48-1.24,3.4-.31,8,9,12.07.62L341.7,420l6.19.93v4.33l-20.42,22,8.66,14.85v3.71l3.1,1.86L338,474.46,326.54,480l-8.66,7.11H312l-7.42-4.64-6.5.31L290,491.16,288.49,498l-2.79,2.17.62,7.42-5.26-.62-5.57,3.72-7.73-.31L265,512.2l-2.47-1.55-5.26-.61L256,511.89l5.88,8.67-1.55.3-.31,2.79h-2.16l-8.36,7.42-4.95,2.79-1.4,3.09-7.57,3.72h-3.71L230,544.38l-5.26,5-.31,4.64,6.81,2.78L230,566l-4.95,3.09-2.16,8.66-6.81,8.36-1.24,5-3.4-.31-2.79-1.86-3.4,2.79-5.57-1.24-2.47,1.85,1.23,4.95L191,614.92l-3.1,1.86-.61,6.49-5.26-.31-12.69,8.36-2.78-.31-2.79,3.4.93,4.33-5.26,10.52-4.95,4.64,2.79,3.41-1.24,11.44-6.5,4.64L148,683l-5,5-.62,1.54,2.17,2.79-2.48,5.57-4.33.62-6.18,5.26-.62,4.33,4.33,3.09,3.71,10.21,7.43,3.4,5.57-2.16H157l1.85,2.78,2.79-.31,2.78-3.09,5.88.93,7.73,6.19,8.05.3,2.47,3.41,1.55.31,1.24-3.1,2.16-.31,5.57-5.56,10.52-1.55,2.17-5,3.71-.93h3.4l9.29-6.5,5,3.1,1.23,2.78,7.43.62,3.09,5.57-2.78,4.33-11.76,7.73-.93,4.34,2.17,3.71-1.68,3.08-1.7,5.71v2.63l6.83,3.68-.26,4.72-4.21,4.21-2.1,4.2L240.53,784l5.77-.52,3.16-5.25,2.36-3.94,16,1.84,2.89,8.93v5.51l15,8.41.27,3.15,2.89,2.1,6.3-4.46-.26-4.47,3.15-5.25h4.73l2.1,4.2,2.1-1-.52-5L303,786.64l2.89-4.2h2.89l2.89,1.84,4.73-1.58,5,8.94h4.73l1.57-2.63,3.15,3.68L328.52,794l4.2,2.89-1.31,6.3,4.2-3.94.26-2.62,1.84-2.89,4.47-.53,2.1,4.73,3.68-5,1.57,1v3.41l2.37,3.16.79-3.42h4.2l2.1-2.89-3.42-2.1.79-1.31H359l1.58-3.16,2.1-2.88,3.94,4.46-3.42,4.2v2.63l3.42,2.1,1.84-2.1h6.83l.52-2.36L374,791.63l2.1-2.1h2.37l.26,2.63,1.84,1.31,1.31-3.41,4.73-8.14,4.47-.79v4.46l-3.68,1.58,1.31,2.36,6,.53,2.37,7.09L395.24,799v4.46l6.83-5.51,1.31,1,.79,3.41,1.31-1.31,6.31-.26.52-.79-3.94-3.94,1.58-3.68,6.56,6.83,1.32-1.84,5.78.79v4.2l2.62,1.58h1.84l.79-4.73h2.89l-1.84-5L432,793l4.2.26,1.58,3.68L436.21,800l3.16,2.1,4.2-2.37,1.57,2.89,2.37-2.36,2.63.53,1.57-5,2.37-.52,1.05,3.15H458l2.1-2.1,4.46,2.63.53,1.84-5.26,2.36.53,6,2.63,1.84.26,4.46,4.46.79-2.1,2.63-5,1.31,3.68,2.89,2.1-1.57,1.84,2.36,7.09-.52,4.47,4.2,1.57-6.83h1.32l-.27-4.47-2.62-2.1.26-4.46,5.52-2.63,1.84,3.42,1.83.78,2.37-.52,2.36-2.63,3.15,2.37,1.58,4.2,9.46-2.37.78-1.83,2.11.26,2.62,2.1,9.2,1.31,8.14,6,2.36-3.68,1.58.79,1.31,2.89-4.2,3.67,1,5.52,6.83,2.89V836l6.3,2.1,1.05-2.37,2.11.79,2.1,2.89,1.84-6h4.46l2.63,3.41,6.83-.26.26-2.63-1.84-.78.79-4.73,9.19-5.52,3.15,1.84-2.1,3.42L579.9,830s10,.53,11,.79S594.6,835,594.6,835l5,2.1.52,4.73h3.94l1.84-1.58,6.72-1Z" transform="translate(-130.61 -8.19)"/></g></svg>