<svg id="Capa_1" data-name="Capa 1" xmlns="http://www.w3.org/2000/svg" viewBox="0 0 613.11 820.87"><defs><style>.cls-1{fill:#c22a39;stroke:#656565;stroke-linejoin:round;stroke-width:0.5px;}</style></defs><path id="path4972" class="cls-1" d="M194.65,20.34,186.46,15,175.4,28.53l-1.63,16-7,8.6h-9l-5.74-7.78s-18.43,2-21.29,3.68-11.88,10.65-11.88,10.65l.82,11.88,16.38,1.22-1.23,9.83-8.6,10.65,4.51,10.65L129.13,126l-3.69,2.87L123,132.54l9.42,12.7-.36,10.08,9.53,4.47,17.06-1.22,4.41,8.87,2,6.31-4,6.46-9.08,8.13L145,198.88l-11.19,1-2,6.71-1.28,8.72,10,5.9,7.94-4.87,7-5.69,5.84,5.43,1.28,12.31-1.28,9L167.92,252l7.12-.72,6.2-5,2-11.7,12.56-11.54,9-.26,2.82,3.85.26,13.34-13.32,14.11-2.92,11.24,10.54,10.4,14.35.42L240,271.08l14.19,9.17,1.43,9L250.1,298l-19.62-5.48L212.3,306.74l-6.42,17.66,1.93,10.53,12.68,19.66,8.2,2.31,3.36-8.11,7.28-5.71,11.28-.15,6.05,8.26,4,7.08,8.15,4.94-3.85,18L267.82,396l7.95,6.93,8.34.06,10.52-7.11,6.25,4.84-2.06,7.85-2.62,7.1,3.35,16.93.77,6.92,4.36,2.05,6.91-10,5-5.65,1.3-6.08,6.53-1.74,6.08,4.78,1.74,8.26,9.57,5.66,10.44,4.78,11.31,13.92-4.35,13.92-3.48-.44-2.61-7V456l-3.48-.87L344,460.32l.87,12.61-7,8.27L331.41,489l-1.74,14.35,8.7,4.35,11.75-.87,6.08-7.4,7.4-.87,3.91,6.53v10l-7.39,6.52-12.18.87-5.65-4.78-5.66-.43-7,3.91-1.3,10.44,4.78,5.22,14.36,6.52,13.91,6.52,3.92,9.57L364.9,563l-6.09,6.52h-10l-9.13,2.18.43,7.83,13.05,2.17,4.78,7-3.48,7.83-6.08,2.17-8.27,3.92-5.22,9.57.87,8.69,5.66,3.92h4.78l3.91,4.78-4.34,3h-5.22L334,637.33l1.74,6.52,5.22,5.22,1.31,8.7-3.48,9.14,2.17,8.26,7.4,9.13,9.56,2.18,13.05-.87,9.57,1.3,2.17,7-3.48,7.39-6.52,7.4-1.3,10.44,3.91,6.52,21.75,13.48,7.39,3,6.52-2.61,2.18.43.43,6.52L411,751.28l-2.17,6.52,6.52,6.09,5.22-.43.87,5.65L418,773l-1.3,7.4-2.18,2.17v6.09l7.4,5.22,2.17,3.48-8.26,10.87.43,5.22,7,9.57,15.66,3,8.52,4.42,3.18.24,2.92-2.44,1.71,4.4H461v-4.64l3.66-3.66L461.27,822l7.08-3.18,1.71,2,5.13,2.68L476.9,819l3.17.73,1,2.93,2.2,1,4.15-2.68h6.1l2.2-1.46h2.93l2.44,4.63,8.05.25L515.7,821v-4.64l12.94-5.86.49-3.9,2-1,2.2,1.71,4.63-.49,1.71-4.39,14.4-5.61.25-3.66,3.9-1,1,4.39,6.59,7.57s2-3.42,3.17-3.42,8.79-1.22,8.79-1.22l1.46-3.17,2.44-2,1,2.92,6.34,6.11,7.33-.49,6.1,6.59,12,2.19.49,1.22,14.88.25,1-1.95,2.69-.49,1.22,1.22,15.13,2.19,5.12-2.44,6.11-.24,5.12,6.35,21.48,2.44,11.47,8,2.2,5.13,8,2,3.91-3.91-3.66-7.56,5.12-6.35L720,816.1l11.51,5.95-3.39-20.93-19-27.76-7.34,2.49-9-2.71-8,.13-6.29,8.1-.88,9.92-10.2,4.87-.65-8.16-7-5.77-3-10.41-4.4-5.22,1.75-7.89L657,739.18l-2.75-15.53-2.06-23.5-.48-17.28-7-16.56.1-9.74,5.77-6.12-.33-6.16,2.6-11.48-2.29-8.76,2.91-14.78.11-19.8-4.38-7.57,3.14-9.77-7.55-7.52-2.14-9L636.9,555l-7.19-17.71,8.17-7.13-9-18.77-6.36-3.88.89-11.39-1.32-10.39,6.41-27.09-2.64-17.11-16.43-14.94-1.58-11.7L599,402l-9.6-4.06-7-8.69,14.31-8.28,3.8-8.67.55-8.91L605.3,352l10.35-4.42-4.8-9.54,1.6-9,4.21-18.21L605.88,293.5l-5.82-22.6.09-13.34-11-5.15-13-2.4-17.46,2.4L544.24,251l-2-3.76,3.42-3.43-2.39-3.08-13.36,1.71-.34,6.16-3.42,3.09h-9.25l-8.22-5.48-24.65.34L478.84,251l-14-2-9.59-12.33-10.27-4.45-1-2.06h-3.77l-6.5,8.56L421,248,409.33,251l-33.56,1-1.72-1-16.78-.68-14.72-4.8-2.05-2.74-5.83-2.39H312.42l-2.4-3.09-8.56,2.4L290.84,235l-1-2.74h-2.74l-3.77,4.11h-8.9l-10.62-2.74L253,221.24l-8.86-8-.28-8.86,3.43-3.14-2.86-2.85.57-4.86,4.57-2.86,2.86-6v-4.86l-5.14-3.43,1.14-4,4.85-2.86,1.72-5.14-2.57-6-8.28-8.85L231,142.7l1.43-13.42-8.86-3.43-.85-2.85-6-.29-3.43-2.28-1.71-2-.29-4.86-3.71-2.85-2.86-4.86.57-7.14,4-2.57-4-4.85-3.14-.58-1.43,3.15-5.14,2L188.19,93l-1.72-10.57L188.76,75l4-2.86-.29-4.85,3.43-4.57L200.18,61,197.9,55.6l-5.14-2.29L191,47.6V43l2.86-1.43L195,36.75l5.14-4.57,4.57-.57L207.33,24Z" transform="translate(-118.64 -14.76)"/></svg>