<svg xmlns="http://www.w3.org/2000/svg" viewBox="0 0 770.9 843.12"><defs><style>.cls-1{fill:#c22a39;stroke:#656565;stroke-linejoin:round;stroke-width:0.8px;}</style></defs><g id="Chocó_-_El_Carmen_de_Atrato"><path id="path5252" class="cls-1" d="M733.85,770.05l-17.52,7.3-21.18-1.46-10.95,8-9.5.73-2.19,8,11,10.22v5.84l-21.18,17.53h-8l-13.88,13.14-7.3,1.46-2.19-4.38-8-2.19-4.38,8.76-13.15,3.29-.73-9.86-5.11-3.65-5.84-8.76h-9.49l-5.84,5.11-8-2.19-16.79-7.31-18.26-6.57-7.3-7.3-9.49-20.45L509,779.54l-23.37,13.15L475.36,812.4H446.15l-3.65-9.49-4.39-2.19-14.6,5.11-11.68-5.11H395l-4.38,6.57-23.37-2.92L355.6,778.81l-8-5.11.73-4.38,5.84-3.65-.73-7.3-5.84-2.92-5.84-15.34-42.36-2.92-4.38-8-35.05-8.76-5.11-5.12-9.49-4.38-25.56,5.84-12.41,19.72L184,734.27l-1.46-3.65-8.76,2.92L159.9,743.76l-19,2.92-5.84,2.92-7.31-9.49-13.14,1.46-6.57,5.84-3.65-3.65-.73-13.87H92l-4.38,7.3-15.33-5.11-2.92-14.61L64.25,716l-3.66-5.84-3.34-20.62,11.38-2,2.19-8.77,5.84-5.84-.73-6.57L57.67,662l-5.84-9.49L54,648.1l-.73-13.87L48.18,624h-8l17.52-16.8,8,1.46,13.88-18.25L78.85,586l-4.38-3.66v-2.19L81,577.27l1.46-12.41,6.57-2.92-3.65-6.57H63.51l-3.65-6.58s10.23-13.14,11-16.79,8.76-3.65,8.76-3.65l14.6-22.64,1.46-16.79,13.15-20.45h3.65l7.3,6.57,3.65-19.71,16.8-7.31,5.84-8,4.38,7.3,8,.73,4.38-5.11,14.61-2.19,20.44-20.44v-8l16.07-17.52h4.38l1.46,5.11,10.95-3.65,2.19-5.84,6.57-.73L249,375l11.68-3.65,2.19-13.14,6.57-5.84h8l8,6.57,10.22,1.46,5.11,4.38,7.3-5.84,11,.73,1.46,5.84,8.76,8.76h20.45l1.46-6.57,8-6.57-.73-4.38-4.38-4.38v-5.84h4.38l.73-22.64,3.65-.73,10.22-15.34.73-21.9,5.85-2.19,10.95-20.45,9.49.73,4.38,6.57,15.34-1.46,5.84-4.38,10.95-.73,2.92,4.38,22.64-14.6,39.43-1.46-1.46-17.53,11.68-19,18.26-8.76,8-14.61-2.92-16.06-12.41-7.3,1.46-6.58,8-8,2.19-13.87,3.65-3.65-.73-6.58L533,124.54v-8l19.72-21.18L552,85.84l-1.46-2.92-4.39-23.37-6.57-5.11-11,2.19-8-8V42.76l8-4.38V34l5.11-8.78,8,2.59,14.51,14.88,21.4-2.61,11.7,14.05,15.73-3.08,18.6-.68L628,36l9.13-9.3L648,6.34,668.39,4l6.31,7.86,13,1L695.44,32l11,10.94,5.56,5.2,18.46,28.34,14.63.64,10,6,19.72-2.47L780.53,91l-7,11.48,1.38,9.14L771,123l-.13,15.28,4.29,3.57,10,1.83,6.15,5.89,8.74,1.29L803.74,161l6.51,5.57-9.25,5-4.22,9.84,3.44,6.6.39,9.51,2.79,9.14-1.93,6-7,6.05L788,219.82l.4,9.48L793,242.68l6.53,7.12-1.94,8.75L796.48,271l2.41,11.46-.82,7.58-7.94,9.85,1,12.48-19.24,4.79-6.07-4.24-11.08-.44-16.39,6.77,1.28,11.51-3.21,12.78-6.13,5.68-4.48,18.68L717.44,372l-16.6,17.56-2,13.71,4.37,8.28-4.63,10,.17,22.16,11.92,7.13,16.45,2.59,13,17.32,2.6,19.05L741,518.4l-9.53,3.46,4.33,10.39,28.58,23.38-4.33,19.06-12.13,9.52,11.26,14.72h6.93L780.83,592l10.39,12.13-6.93,23.38-13.85,6.06-.87,13,11.26,13.85,2.6,26-9.53,3.47-5.19,15.58S754,715,750.52,716.7v14.72l-7.79,6.93Z" transform="translate(-39.75 -3.64)"/></g></svg>