<svg xmlns="http://www.w3.org/2000/svg" viewBox="0 0 459.23 843.48"><defs><style>.cls-1{fill:#c22a39;stroke:#656565;stroke-linejoin:round;stroke-width:0.8px;}</style></defs><g id="Bajo_Baudó"><path id="path5163" class="cls-1" d="M348.66,749.53l2.47-.72,1.62,1.26.54,3.79,2.53,1.62L356.9,751h2.16v4.51l2.89-1.26,2.7-.54-2.16-5.23,3.25.54,1.08,4.15,4.87-.18.36,3.24,2.34-.36,1.8,3.79-1.8,1.08,3.79.18.36,2-4.15,3.25,2.71,2.7L376,770.08l.54,3.07,1.45.36,1.8-1.08,2.7,2.52,5.77,1.09.73,2.7,2.7-1.8,2.89,2.34-.18,3.61-2.53,2.16v.9l2,1.08.91,4h1.44l1.8-1.44,1.8.54,1.81,4.15L400,795.51v3.24l-1.63,2L401.8,806l2.7-1.09,3.25,3.43,1.26-1.08,2.89.18,2.52,4.87,3.61,1.44.36,2.52,4.32,3.25h5.05l.36,2-2.88,1.08,3.42,4.69,3.07-.18.72,4.69L430.29,833l.9,2,1.08.54.54,3.24,3.79,1.08.72,2.17v2l3.25-.18.9-1.26,2.7.72,6.31-2,4.15-3.07,4.69,2-.36,4.51,2.16,1.62,3.25.18,2.52-1.08,4.69.36,5.23-3.42,8.11-.54L486,837.7l1.81-.18L490,835.9l5,4.14.54,2.17,2,.18,1.09,2.52,5.22-.18.37-6.67-1.63-2,.36-1.45.9-.18.73-6.49,1.26-.54v-.9l-3.07-.72-.54-7,1.26-4.69,4.69-2.35,2,2.35L516.3,813l.72-1.27,2.7.73.9,2.52,4.69.9,4.87,4.69,2.88-.18.19-1.44,5.4-2.17,3.83.23,1.48-2.73-1.77-3,.75-3.53,9.61-6.32,2.27-3.54-2.53-4.55-6.06-.5-1-2.28-4-2.52-7.59,5.3h-2.78l-3,.76-1.77,4-8.59,1.27-4.55,4.55-1.77.25-1,2.53-1.26-.26-2-2.78-6.57-.25-6.32-5-4.8-.76-2.28,2.53-2.27.25-1.52-2.28h-4l-4.55,1.77-6.06-2.78-3-8.34-3.53-2.52.5-3.54,5.06-4.3,3.53-.5,2-4.55-1.77-2.28.5-1.26,4.05-4,1.26-7.84,5.31-3.79,1-9.35L481,742l4.05-3.79,4.29-8.59-.76-3.54,2.28-2.78,2.27.26,10.36-6.83,4.3.26.5-5.31,2.53-1.52,6.07-14.4-1-4,2-1.52,4.55,1,2.78-2.27,2.27,1.51,2.78.25,1-4,5.56-6.82,1.77-7.08,4-2.52,1-7.59-5.56-2.27.26-3.79,4.29-4,1.52-3h3l6.19-3,1.14-2.53,4-2.27,6.83-6.07h1.76l.26-2.27,1.26-.25-4.8-7.08,1-1.51,4.3.5,2,1.27,2.27-1.52,6.32.25,4.55-3,4.29.5-.5-6.06,2.27-1.77,1.27-5.56,6.57-6.82,5.3-.25,6.07,3.79h4.8l7.08-5.82,9.35-4.54,1-5.56-2.53-1.52v-3l-7.08-12.13L639,555.26v-3.54l-5.05-.76-7.58-4.3-9.86-.5-6.57-7.33-2.78.25-2,1-10.87-.25-4.29-4.3-3-.25L585.4,534l4-9.35,8.09-1.77,4.8-12.13,2.53-2.53.25-4.8-1.26-.5,4.55-2.78v-2.78l-.76-.26-5.25-8.44-3.24.2-.82-2.06L595,482.9H593l-5.16-3.09-4.74.21-.83-4.54-6.4-2.07-1.65,2.27-3.5.41-4.13-2.88.2-3.51L563.66,467l-2.68.41-2.89,3.71h-3.92l-2.69-4.95-2.47-.62-3.72,3.1H543l-3.3-6.19-3.3-1.24h-3.51l-1-1.45-6,4.75v1.24l-4.54,2.68-.83,1.44,1.45,1.86.62,10.73,2.68,1,.21,2.48-2.69,3.09-4.12-.41-6.19,5.16-9.08.21-2.89-2.27-.83-5.16L498,485l-2.27-.21-.41,1.45-3.3-.21-2.69-4.13-4.33.62-.82-1-.21-3.1,4.33-2.47v-6.4h3.1l-.21-1.86h-1.65l-2.06-2.06v-2.06l5-2.48,2.48.21,2.47-1.65,1.45-3.51,3.71-.21.83-.62L502,454l1.86-2.07,2.89-1,.62-2.68,2.89-.83,1-2.27,1.85-.61.42,2.06,3.71.62,1.65-1.45v-2.47l2.48-2.89,2.27.41.41-2.06-2.48-.83-.41-1,2.07-.62.2-2.27-3.92-3.92-4.33-.41-2.68-1-1-5.78L504,416.67H493.71l-3.92-2.89v-3.1l-10.11-9.28-6.4-.41-7,11.76-3.3,1.86-2.47,8-8.26,3.1-8.46-.21-1.44-1.85-13.41-.42-7.43,2.27-.21,1,1.45.83-.42,5.78-3.92,2.27-1,8.66-12.17,8.46-5.37-1.44-3.09-7-8.05-.82-.62-1-2.48.41-.82,3.92-5.37,3.51-3.3-.21-2.27-5.36-.41-4.54-.83-1-.41-1,1.65-1.24L374,433l4.54-5,3.3-.42.41,2.27,2.06.83.42-1.24,3.92-3.09,1.86,2.47,13,1.65,1.85-1.24L411,427.4l1.45-4.34L404,417.7l-.21-8.67,5.16-5.77h3.3l1-.83L412,400.78l-.42-3.92-2.06-1.45v-1.23l2.27-1.45.21-10.32-4.75-3.09-4.13-13.83L400.23,363l.62-3.72,9.91-8.87.2-4.74,1.65.82,5.16-.41,1-1.86,2.69,1.86.2,2.47-4.33.83-1.65,2.06,1.86,1.45.2-1,6.81.61,2.89,2.89,1.86-3.3,2.68-.41,1.65,2.06,1.86-1.85,3.71.82L437,349.6l2.07-1.44h1.85l.21,2.89,2.06,2.27.83-1.24-1.45-1.65,1-1.44,3.5-.62,1.45-3.72.2-5.77L451.2,337l-2.27-1.45.21-1.44,2.47-.83.21-2.47,3.92-2.89-.62-2.27-1.65-1.44-1-9.5,1.24-1,.62-5.57,3.92-2.89,2.47-.41.21,1-2.48,2.48,2.48,1,1-1.86,7.22-3.71,1.24-2.69-4.95-2.06L463,295.34l4.34-.83-1.45-2.89.83-3.5,1.24-.42,2.06,2.07.2-3.1,7.85-3.3,6.19-10.73,1.65-6.19,3.09-2.68,2.27,2.47.41,7.43,3.72,1.24,1-4.54,2.06-1.45,4.75-6,2.89-.21,1.44,4.34,2.69,2.68.2,1L508.57,272l.41,2.06,6.39,4.13.42,4.33,4.74,2.89,6.19.62,4.54,4.54,2.89-2.47-2.89-2.89,2.07-.42-.21-3.3-1.86-.82,1.65-1.65,2.07-3.51,3.92-1.65.2-4.75,5.16-.2,1.24-1.66,2.48-.2.62,1.86,4.54.41,2.88-.21,2.07-11.35-1.65-1.24.41-2.27,5.37-5.77,4.74-1,1.24,1,6.6,1.85,8.46-9.07-3.09-3.1-.42-10.73-1.85-2.06,1.24-2.48,5.36-.62,4.75-6,2.47-.83.62,1.24,5.57.21,1.86-.83,1-4.33,7-7,3.92-.2,1.65,1.85,5.78,1,.62-1.24,3.71-1.86.41,3.72,2.07,1.23.2-2.06,4.54.21,3.1,1,.82,1.44,2.67,4,1.31-1.74.63-4.6-1.88-1.67-.84-4.18-2.3-.42-2.51,1.46H629l-.21-2.09,4-1.25L633,194l-2.92-1.88-1.26,1-5.85,1L620,191.69l2.09-1.46,2.09-3.35-2.51-1.46-.84,3.55h-2.92l-3.56-3.14-3.14.21,1.26,1.26.42,3.76-1.68,6.28-7.74,4.6-1.67-5.23-2.51-.21L596,199.22v1.88l2.51,1.67L596,204.66l-.63,5.85,3.34.42-1.46,1.88H592.4l-.21-4.6,1.26-3.14-.84-5-2.09-.2L590.1,203l-1.46,1.47-1,5.23-2.09-.21-1.88-3.77h-1l-1.46,1.47-.84-1,1.88-1.67-.62-4.6-3.14-.42-1-4.6-1.88-.42-2.09,1.88-4.39.21V195l2.09-.21,3.34-2.3-.62-1.89-4.39.21-2.93-6.69-2.09-1.46L558.31,184l-.21-1.67L560,181l.21-5.23,5.44-1-.21-2.93-2.72-1.25v-2.93l3.14-.84-3.76-2.09,4.18-5.65-.21-2.3-4-1.25-1.47,2.09,1.26,2.51-3.35,2.72-.63-3.14-3.34-1.25-.84-2.51,1.88-1.26L552.66,153l-2.09,2.72-1.46-.84,1.25-2.72-3.34-.42-.42,5.44-3.35.42-2.09-2.3-1.88-.42-.84,2.72-1.25.21-2.09-1.05-.42-4,1.88-2.09-.39-1.08-3-.53,1.1-2H537l.42-2.3-2.72-1.25-.84-4.6-1.25-.84L531.12,140h-2.51l-.62,2.72-1.26.84-1.25-1.26-2.93-.63-.21-2.92-1.47-1.47h-1.46s-.86-2.29-1.8-2.85-4.92-3.79-4.92-3.79l-1.89.57.18,2.65-1.32.38-1.32-2.84-3-.38-.57-4.54-2.08-.38-1.51,3.41-3.22-.76-1.13-4.16-1.71-.38-.94,1.89h-2.84l-1.51,1.14.37,3.21,1.52-1.51,1.7.38v2.08l1.89.57.76,2.83-4.16.38-1.52-2.65h-.94l-2.27,2.08h-3.79l-1.51-3.4-1.14.19L480,133.7l-1.33.57v2.08l3.22-.95,1.13,1.7-3.4,1.14-3,3L475,139.75H473l-4-2.84-.75-2.08L465,136.91l-1.13-1.7-2.84-.38-.57-3.21-4.16-2.27-.19,3.21-3.59.76-.57,6.81h-3l-2.27,1.51-7-1.13-6.24-4.35.19-2.08-1.9-.57L430.2,135h-2.08l-1.7-7.75-3.79-6.06-3.21-.38-1.52,2.84-2.27-2.27-4-.38-.76-4.16-3-2.08-3.6-6.62-7.19-.19-7-4.73.38-1.33-4.73-6.43-.57-3.59L384,90.56l1.13-1.7V86.59l-1.32-.94.38-3,6.62-2.08,1.51-2.84,6.44-.57-.19-4.35.56-1.13-.56-3.22-2.46-1.51L394.63,58l-2.27-3.59-4.92-1.7-.5-5.42-2.44.33-2,7.94-1.82.45L377,60.79l-3.86-.45-3,2.72-1.59-1.36,2-3.4V53.08l2.27-2.27.46-2.72-3.18-2.49L370,39.92l-3,1.37-5.67-5.9-.22-3.18-3.63-.68L353.2,27V21.78l-5.67-3-.68-6.13,2-2-.68-2-2.72-.23L338,13.16l-3.4-2.27-2.72.68L328.47,15l-8.62-1.36-5.89.91L311,16.79h-4.54l-1.59,1.59-3.63-4.09,1.82-2.95-.45-3.4-6.13-4.08L294,4.54l-1.36,8.17-2.05-1.82h-2l-.68,3.18-5,3.85-3.4-1.81.45-4.08-4.53-1.82-2.5,3.4v7.94l-2,3.86-3.4-2.72-8.62,1.59-1.59,1.36-8.17,1.13-.45,6.81-4.76,5.67h-7l-1.59,3.17-3.4.23-2-2.27H226l-1.59,2.5-3.86-1.36L220.05,47l1.36,1.81v6.35l-2.27,1.14-.9-2.72-4.09-.23-.68,2-4.76-.91-2.5-1.58-1.81-3.41-4.31-1.13L193.18,48l-2,5.4-4.41,3.35L181.13,65l-.31,1.87,6.77-.31L189.13,64l.62,2.18,4.31,1.24,4.22,1.15,5-5.39,3.08.31,5.85,5.29,1.23,3.73,3.69,1.56,2.21-4.16,14.17-11.2h9.85l4-1.55,11.39,9.33v3.11l8.62,4.66.92,12.76-4.92,5.59.92,3.43,4.62,1.55,7.39-8.71h2.15l7.39-2.49,4.31,1.25-4.31,2.8,1.85,3.73,11.08.93V97l-4.62,5.29.31,3.11,3.08.93-.61,4-5.85.94L288.88,116l-.92-1.86-6.16-5.6-2.46,1.24v7.47l5.85,5,3.69-4.35-.31-2.18,1.85,1.25L291,129h-2.16l-1.23-2.8-7.7-3.11L276.87,125l-.61,4,2.77,3.42-1.85,11.2,1.47,4.47,9.85,3.42,6.16,6.84-.92,2.8-4-4.66-3.38,1.86,1.23,9-3.39,5v11.09l4.29.93,8.94-7.66,8.62-7.16,4.93,1.87-3.08,3.73-7.39,2.8v4.67l4.31,2.79.92,7.47,2.77,3.42,6.47,3.11-2.16,4.36-4.31.62-.61,4.35-.93,3.73,6.78,5.29-1.23,3.11-4.62-.62-2.47-3.42-4-1.87,1.54-6.22-1.54-3.73h-4l.92-4.35L296.81,197l-3.69.63-3.39,3.73.62,11.51,2.46,8.71v24.57l1,22.56-4.16,11.11-2.43,12.41v13.38l3.7,3.42,2.15-.63,2.77-3.11,1.85-13.68,12-16.49,3.69-.93,3.08,1.24,8,.94,3.7-3.11,5.23,4v2.8h-3.08l-2.46-2.8-2.16,2.8L310,281.3,302.92,290l2.16,16.18,9.23,9.64,4.31.93,1.85-2.8-.62-3.73-5.54-6.53.62-8.09h4.31l4.62,2.8,14.47.62-3.7,4.36-6.46.62-.93-1.87-8-3.42-2.46.62,1.84,5,7.39,8.4-.31,3.11-3.07.93-.93,2.18,5.54,1.24-1.54,1.87-9.54-.31-2.46-3.11-8-4.36-3.08,1.56.31,10.26-2.77-2.17V310.54h-2.46l-2.16,4.67,3.08,10.57-1.84,12.75,3.07,3.12,5.55-1.49.62,3.42,2.15,2.17-1.22,4.41-1.85.93,1.24,3.74,4.61,5,3.39.62L310,363.53l-4,.32-3.7-2.18h-2.46l-3.39,3.42,2.77,10,7.39,12.44,3.8,8.31v9.76l2.88,5.06-1,10.56-7.12,15.08-.64,14.57,3.18,5.43,1,4.3,1.75.14,1,4.3-1.83.31-1.83,9.38,5.75,9.4,2.41,8.43-2.36,8.39,1.84,10.8,4.31.36,1.08-5.06h2.51l2.16-7.59,2.88,1.45-2.52,12.29,5,4.7,4.32,14.1L332,539.18,328.36,537l.72-10.85-6.11-4.7-.36-6.5-2.16-.73-5.75,4.34-.36,14.83,4.31,18.07,4.32,6.15-.36,7.23,2.87,4-.36,3.61,2.16.73,2.87-4.7,3.9-.83,6,1.11-1.8,4.34-2,8.37-3.59-1.09-.72,1.45,1.8,2.89-1.08,7.59,5,.37,8.4.57,6.83-4.7,2.16,1.09-5.92,8.49,2.84,6.36,3.62,8,9.66,2.69,10.79,13,10.06,15.55v9l-3.59-1.09-6.47-19.88-9.35-11.93-9.7-2.54h-5.39l-13.3-7.23-1.8,7.6,3.59,17.71-2.87,5.06,1.08,5.43-.72,11.57,2.87.36,2.16,1.81,8.63-1.09,1.79-6.51,2.52,2.9.36,5.06-3.24,2.89,2.52,4-1.44,7.59,4.68,5.78-7.55,10.13v7.23l-2.88-.72L347,691.13l1.8-6.15-2.16-3.25.36-6.51-2.51-3.61h-2.52l-3.59,3.61,3.23,16.63v13.74l-5,11.21v4l3.23,5.42,1.3,7.43-1.37,5.49v7.59h2.15l3.6,3.62ZM326.19,596.28l3.95-5.43.72-6.14-1.08-1.09-2,2.08-3.59,1.09-2.91,4.71,2,1.16v3.25Z" transform="translate(-180.42 -3.46)"/></g></svg>