<svg xmlns="http://www.w3.org/2000/svg" viewBox="0 0 827.18 573.83"><defs><style>.cls-1{fill:#c22a39;stroke:#656565;stroke-linejoin:round;stroke-width:0.8px;}</style></defs><g id="Lloró"><path id="path5344" class="cls-1" d="M486.57,709.78l-5.85-5.86L480,693.68,469.74,682l.73-4.39,6.59-2.93-1.47-30,8.79-11.71L499,632.2l1.46-11.71,8.79-10.24-1.47-16.83,9.52-15.37-4.39-5.86L518,567.8l.73-34.39,17.56-9.52,15.37,1.47,11.71-9.52.73-12.44,13.18-13.17s8.78,2.93,11.7,1.46a83.33,83.33,0,0,0,8.05-5.12l2.93-7.32,8-4.39L611,459.49l5.85-8.05v-8.78l7.32,2.2,20.49-11,11.71-8.78,8,4.39,36.59-.73,4.39-4.39,5.86-.74,19-11,4.39-12.44-.73-15.37,4.39-5.13.74-5.12-6.59-4.39v-5.86l11,2.2,19.76-5.85,12.44-10.25,3.65-7.32,13.18-.73,7.32-8,13.9-2.19,3.66-12.44-2.93-2.93,11-8.05,8.05-2.2,7-8.88-.57-7.59-4-2.9-4.64-6.95h-7.53l-4.64,4-6.37-1.74-13.33-5.79-14.49-5.21-5.79-5.8-7.53-16.22L764,244.87,745.45,255.3,737.34,271H714.16l-2.9-7.54-3.47-1.73-11.59,4.05-9.27-4.05H673.6l-3.48,5.21-18.54-2.32-9.27-20.28-6.38-4,.58-3.48,4.64-2.9-.58-5.79-4.64-2.32-4.63-12.17-33.61-2.32-3.48-6.37-27.81-7-4.06-4.05-7.53-3.48L534.53,195l-9.85,15.64-18.55-1.74L505,206.05l-7,2.31-11,8.12-15.07,2.31-4.63,2.32-5.8-7.53-10.43,1.16-5.21,4.63-2.9-2.89-.58-11h-9.27l-3.48,5.79-12.17-4-2.31-11.59-4.06-1.16-2.9-4.64-2.66-16.4-7.41-11.81L382,138.68H369l-5.58,3.72v15.49l-5,3.1-1.86,10.54,5,5.58.62,4.34-9.3,6.19H340.49l-12.4,8.68-22.31.62L294,210l4.34,6.2-2.48,2.47-.62,12.4-5.58,7.44L280.37,236l-3.1,4.34-7.44-1.24L258.05,223l-14.25-1.24v9.92l-6.82,5-10.13-.1L225.48,243l-5.43,7.36-.77,8.54-10.86,9.69v8.54l1.93,1.16,1.17,14.74,10.86,12.41-3.1,16.29-9.7,12-21,6.59L184,340l-7.37,12.41L174.67,364,156.44,384.2l.78,10.08,2.71,4.27.39,10.86,14,12.8-.39,7-5.43,2.33L170,461l12,15.12,3.49,2.72-1.16,6.21L172.73,487l-11.25-12.42-27.92.78-2.33-3.88L125,472.64l-3.88,5,5.82,4.65-1.16,3.88-11.25.39-2.71-5-7.76,3.1-1.94,4.65-14.35.78-.39-3.49-3.88-3.49L80,484.27l-3.1,5.82-14,.38-4.26,6.6-7.76-11.64-5.82,1.17-1.94-2.72-2.32,4.65-5.82.39-1.17,9.31-4.26-5.82L24.18,492,16,495.9v8.15l6.21,3.1,3.1,9.7-5.43,29.09-2.71,1.94,4.26,3.49-3.1,3.88-1.55,4.26,3.88,4.66-.78,2.32L16,570l.39,7.75,2.72.39L25,589.77l5.82,3.87L30,601.4,26.12,603v4.27l1.94,1.55,1.16,3.49,4.65.78-4.26,3.49,6.2,2.71-1.94,4.27-3.1,2.72-1.16,3.88a41.6,41.6,0,0,0-7.76,1.94c-2.71,1.16.78,10.08.78,10.08L20.3,658l-6.21,4.66,1.55,6.2,7.76-2.71,5.43-7.37,5.43-2.33,11.64,5,2.36,12.37,21.59-.61,7.94-5.67,4-.57,4.54-4,.56-6.24s7.38-9.07,9.65-10.21,14.18,0,14.18,0l1.7-5.67,9.07,9.08,11.35,1.7,3.4-4h3.41l2.26,3.4,9.08-.57-4.54-7.37,3.41-6.24h6.23l6.24,5.67,9.65-4.54,1.7-6.8h8.51l4,2.84,13.61,4.53h3.4L206,633l4.54-1.7,1.13,4.54L219,641l1.7-4.54,4,3.41,12.48,2.27L240,633l9.65-6.24,2.26-6.81-2.26-3.4.56-7.94h2.84l.57-5.1-5.11.56.57-5.1,9.07.56-1.7-8.51,2.27-4.53,3.4,4H265l-1.13-7.38,4.53-4,6.81,1.14,1.13,6.8-5.1,1.14v11.34l2.84,1.7,2.26-4.53,9.65-.57,3.4,7.37,5.11,1.14,11,7.28L301,615l6.22,4.15v4.49h-7.94l4.49,4.14-4.84,5.88,3.46,3.46,3.11-3.81h4.83l-.34,6.57,3.11,2.42.69-5.88,10-.69,2.42-9,5.18-1-2.76,7.61h4.84l1,9.33,3.46,1.38,3.8-6.57,8.64,2.77,2.42-3.46,9.67-2.07,1.73,5.53-9,2.76-1.39,2.77,7.26,2.42h4.49l4.5,4.49v6.57l4.14,2.07-1.38,8.29,2.07,2.08v9.67l4.84,1.73.69-3.11,12.79-2.07,2.76-4.5h8.3l-2.42,3.81,1.72,2.76,3.46-2.76,2.76,2.76,11.06,6.22,6.91,1,1.39,4.49,9.33,4.49,5.87-5.18,10,2.07,11.06,10,4.84,1,10.22,7.51Z" transform="translate(-13.69 -138.28)"/></g></svg>