<svg xmlns="http://www.w3.org/2000/svg" viewBox="0 0 835.38 809.5"><defs><style>.cls-1{fill:#c22a39;stroke:#656565;stroke-linejoin:round;stroke-width:0.8px;}</style></defs><g id="Medio_Baudó"><path id="path5168" class="cls-1" d="M526.13,817.31l-7.19.51-1.86-4.69-7.43-8.92H505l-11.61-7-10.69.47-1.85-10.33-14.41-4.69-3.71,5.16-7.9.94-9.29-6.57.46-8-7-6.1-6,.94-6.5,8.45h-8.83l-6-11.27-5.57-1.41-8.36,7h-5.11l-7.44-14.08-7.43-2.81h-7.9l-2.32-3.29L354,762.44v2.81l-10.23,6.11-1.85,3.28,3.25,4.23,1.39,24.4,6,2.35.47,5.63-6,7-9.3-.94-13.93,11.73-20.44.47-6.51-5.16L295,812.66l-3.71-3.76-5.11-.47-.93,3.29-7.44-.47-6-9.39L262,803.27l-1.86-2.35-.46-7,9.75-5.63V773.7h7l-.46-4.22h-3.72l-4.65-4.69v-4.7l11.15-5.63,5.58.47,5.57-3.75,3.26-8,8.36-.47,1.86-1.41-3.26-2.82,4.19-4.69,6.5-2.35,1.39-6.1,6.51-1.87,2.32-5.17,4.18-1.4.93,4.69L334.5,723l3.72-3.29V714.1l5.57-6.57,5.12.94.92-4.7-5.57-1.87-.93-2.35,4.65-1.41.46-5.16-8.83-8.92-9.75-.94-6-2.34-2.33-13.14-16.72-14.08H281.54L272.71,647v-7L250,618.83l-14.4-.94-15.8,26.75-7.43,4.22-5.58,18.31-18.58,7-19-.47-3.25-4.23-30.2-.93-16.72,5.16-.47,2.35,3.26,1.87-.93,13.14L112,696.27,109.65,716,82.24,735.22l-12.08-3.29-7-15.95L45.07,714.1l-1.39-2.35-5.58.94-1.86,8.92-12.08,8-7.43-.47-5.11-12.2-.93-10.33-1.86-2.35L7.9,701.9l3.72-2.82.47-8.45,10.22-11.26,7.43-.94.93,5.16,4.64,1.88.93-2.82,8.83-7,4.18,5.63L78.52,685l4.18-2.82L95.25,678l3.25-9.86-19-12.2L79,636.19,90.6,623.05H98l2.33-1.88-2.79-3.76-.93-8.91L92,605.21V602.4l5.11-3.29.47-23.47-10.69-7-9.29-31.44-6.5-5.63,1.39-8.45,22.3-20.18.47-10.8L99,494l11.62-.94,2.32-4.22,6,4.22.46,5.63-9.75,1.88-3.72,4.69,4.18,3.29.47-2.35,15.33,1.41,6.5,6.57,4.18-7.51,6-.94,3.72,4.69,4.18-4.22,8.36,1.88-5.11-7,4.65-3.29h4.18l.46,6.57,4.65,5.17,1.86-2.82-3.25-3.76,2.32-3.28,7.9-1.41,3.25-8.45.46-13.14,5.58-4.22-5.11-3.29.46-3.28,5.58-1.88.46-5.63,8.83-6.57-1.39-5.16L191,443.29l-2.32-21.59,2.78-2.35,1.4-12.67,8.82-6.57,5.58-.94.46,2.35-5.57,5.63,5.57,2.35,2.33-4.23,16.26-8.44,2.78-6.11L217.89,386l-5.57-8.45,9.76-1.87-3.26-6.57,1.86-8,2.79-.94,4.64,4.69.47-7,17.65-7.51L260.17,326l3.72-14.08,7-6.11,5.11,5.64.93,16.89,8.36,2.82,2.32-10.33,4.65-3.28,10.68-13.61,6.51-.47,3.25,9.85,6,6.1.46,2.35L315,324.55l.93,4.69,14.4,9.39.93,9.85,10.69,6.58,13.93,1.4,10.22,10.33,6.51-5.63-6.51-6.57,4.65-.94-.46-7.51-4.19-1.88,3.72-3.75,4.65-8,8.82-3.76.47-10.79,11.61-.47,2.79-3.76,5.58-.46,1.39,4.22,10.22.94,6.5-.47,4.65-25.82-3.72-2.81.93-5.16,12.08-13.14,10.69-2.35,2.78,2.35,14.87,4.22,19.05-20.65-7-7-.93-24.41-4.18-4.69,2.79-5.63L486,211.44l10.68-13.61,5.58-1.88,1.39,2.82,12.54.47,4.19-1.88,2.32-9.85,15.79-16,8.83-.47L551,175.3l13,2.35,1.39-2.81,8.36-4.23.93,8.45,4.65,2.82.46-4.7,10.22.47,7,2.35,1.86,3.28L604.7,192l-.42,4.54,6.15,3.88,2.3-5.43,6.15-3.88,1.92,2.32,10.36,2.72,4.61,5,8.07-1.94.76-5.43-3.84-1.16,9.6-7.37-4.22-12.42,6.91-6.21.77.39,7.3-4.65-4.23-3.88.77-10.87,6.91-5h2.31l.77-7.37H670l1.92-5.43L668,127.13l-1.54-4.26L663,118.21l3.45-5.43,5.38,1.17,7.68-8.15s1.92-8.92,3.46-9.7l5.37-2.72L688,74l8.45-15.91,5.76-2.71.38-7.37,7.3-13.58h4.22l5-6.6.77-2.71,3.84-4.27m-.63,0,11.3,2.94L751.5,37l.36,19.87,11.29,6.26.37,8.83L770.44,76l4.37.36,13.11,12.15-1.82,7.36-3.28,1.47,4.74,28L773,130.86l-2.19,5.89,3.64,3.31,1.1,4.79-8.38,6.25,2.55,17.3,8.74,12.51-1.09,5.52L773,187.9,769.71,200l-3.28,4.42-6.13,9.83L757,222.1l-13.81,7.29-13-.82,3.24,7.36,6.49,1.23.81,22.92-6.08,4.51v8.18l13,12.69-1.62,4.5-3.24,1.64-2.83,11-5.27,4.91.81,4.91,4.05,2,.41,20.87,24.71,23.34-.4,9-5.68,2.86,2,4.1h4.05l4.86,4.91h9.73l7.69,7h11.75l6.49,7.37,3.24-.82,5.67-6.14,13.37,1.23,6.08,4.91,8.91,3.27-1.22,13.51-12.56,10.23v3.28l5.27,2.45-.4,5.32-2.84.41-1.22,10.23-5.26,2.46,1.62,7.78,9.72,2,4.46,4.1-.41,6.14H826.28L811.7,477l-6.49,18.83L802,498.71l1.22,10.23,4,2,.41,5.33,4.45,6.13,14.18.82,4.46,3.69-1.22,4.91-7.69,3.68-7.7,10.64-28.77,22.93-5.67,4.09,1.22,4.5,10.53,7-16.61,24.15-12.16.82-16.2,10.23-9.32,1.64-7.7,5.32V635l7.7,6.55,2.84,9,5.26,6.14-23.5,27.42H711.63l-13,14.32-.41,2.87,4.06,4.09-3.65,29.06-4,4.1-1.22,7,2.43,7.78L693,757l-6.48,2-8.92,12.28-4.45.41-13.78-17.6-25.52-12.28-11.35-2.45-3.24-3.69-4,6.14-.81,6.55-19.45,22.51h-2.83v7.78l-13.78,11.87-4.46.82-6.48,7.78-21.07,9.41-2.83-.82-14.59,4.5-2.43,5.16" transform="translate(-7.5 -20.45)"/></g></svg>