<svg xmlns="http://www.w3.org/2000/svg" viewBox="0 0 834.27 506.69"><defs><style>.cls-1{fill:#c22a39;stroke:#656565;stroke-linejoin:round;stroke-width:0.8px;}</style></defs><g id="Certegui"><path id="path5372" class="cls-1" d="M80.5,380.53l7.06-5.65,3.3-6.59,8.94,2.83,1.42,6.59,7.06-.47,4.24-6.12v8.94l-4.24,5.65,7.06,2.83,7.06-3.77,2.83,2.35,1.88,16,11.3-3.77,1.88-8.47,4.24,2.35V398l5.65.47,4.71-6.59,2.35,2.83,6.59,2.82,2.83,3.77-8,.94v8l2.82,5.65,5.65-7.06,9.42-.94,4.7,3.76-1.88,11.3,7.53,5.65,4.71-5.65,2.83,4.24-3.77,3.77,4.71,8.47h6.12l11.3,20.72v14.59l-5.65,5.65L209.5,486l8.48-1.88,6.59-8.48,19.3,20.72-2.82,27.78-3.3,2.35,13.18,9.89,11.77,4.71,1.42,14.12-4.24,2.36-7.53-4.71-8,6.59v8.47l7.54,8,2.35,11.77,7.53,5.64,2.83,19.78s16,16.48,16.48,18.36,1.39,24.08,1.39,24.08l9.62,5.35,19.3,3.14,4,5.84,8.52.44,7.18-4.48L328,661.35l3.14-3.14,2.7,3.14,7.63-.45,15.7-10.32,6.74-2.7.89-5.38,3.59,3.59L377.8,643l12.12-7.63,11.22-.9,11.66-4.93,2.7-10.33,15.26-11.66,2.69-8.08h8.08L455,582.81l3.14-10.32,3.59,1.8L472,568.45l2.7-4,6.73.9,9-11.67,1.79-25.58,9.43-13,3.59,4,12.11-1.34,3.14-6.74h14.81l14.37-10.32,38.14-4.93,9.88-9L613,484.53,622.39,498l11.67.45,9,5.84,3.15-3.15,2.24-4,16.61-.45,6.73,5.83,4.49-1.35,1.34-18.4,5.84-6.73,8.14-.63-6.75-15.16-14.07-5v-35l5.45-1.36,2.27-8.18,5-.45,2.72-5.45-7.26-5.45-12.26.45-3.18-9.08-11.35-4.54L644.86,388l-1.36-6.36-10-1.36L629,386.64l-4.08-1.36v-8.17l5-7.72,6.81.91,6.36-3.63,2.72-11.81h11.81l1.36-12.26,10.44-18.16,10.45-6.81.45-8.18,4.09-1.81.45,4.54,11.81,10.9,11.35,20,8.17-.46,40,11.81,21.8.45.9-10.44,5-3.63,5.9.9,18.62-18.61,17.25-.46,5.45,5.91,10.9-7-12.14-9-5.72-1.23L811,299.45,799.1,297l-7,6.13-11-5.32-1.64-5.32-8.18-1.22-13.1-7.37-3.27-3.27-4.09,3.27-2.05-3.27,2.87-4.51h-9.83l-3.27,5.33L723.4,283.9l-.82,3.68-5.73-2V274.08l-2.45-2.46L716,261.8l-4.91-2.45v-7.78l-5.32-5.32h-5.32l-8.59-2.86,1.64-3.28,10.64-3.27-2-6.55-11.46,2.46-2.86,4.09-10.23-3.28-4.5,7.78L669,239.7l-1.23-11H662l3.27-9-6.14,1.23-2.86,10.64-11.87.81-.82,7-3.68-2.86.41-7.78H634.6l-3.68,4.5-4.09-4.09,5.73-7-5.32-4.91h9.41v-5.32L629.28,207l5.32-3.68-13-8.62-6.05-1.35-4-8.73-11.42.67-2.68,5.38-3.36-2V175.18l6-1.35-1.34-8.06-8.06-1.34-5.38,4.7,1.35,8.73H583.3l-4-4.7-2.69,5.38,2,10.07-10.75-.67-.67,6.05,6-.67-.67,6h-3.36l-.67,9.4,2.69,4-2.69,8.06-11.42,7.39L553.74,239,539,236.3l-4.7-4-2,5.38-8.73-6.05-1.34-5.37-5.38,2L513.44,235h-4l-16.12-5.37-4.7-3.36H478.51l-2,8.06-11.42,5.37-7.39-6.72H450.3l-4,7.39,5.38,8.74-10.75.67-2.69-4h-4l-4,4.7-13.43-2L406,237.65l-2,6.71s-14.11-1.34-16.8,0-11.41,12.09-11.41,12.09l-.68,7.39-5.37,4.7-4.7.68-9.41,6.71-25.71.67-12.69,15.18-6.7,3.12-4,42.4-16.07,10.27-16.51.89L273,361l-5.8,2.67-10.71-1.78-7.59,8.48-1.34,8.48H235.51l-18.29-8.93-9.38-12.5L194.9,355.6l-3.57,5.8-4-4,1.34-8.48,9.82-4.91-3.12-21-11.61-5.36-17.85-1.34-6.69,3.13L143.58,315l-4.47-4.46-8.92-.89-17.41,2.67-5.8-3.57-17.9-.66-27.6,12.76-37.79,7.56L10,341.82l-1.52,5.27,8.48,6.12,2.35-3.3h6.59l-.94,4.24,5.18,5.65L34.83,356l.94-3.76,2.83.94.47,5.18,6.12,2.35.94-4.71,4.24-.47,2.35,5.18L49.9,365,56,368.74l1.41-6.12,7.53-.94.47,8,3.3,3.29,4.71-2.82,6.12-.47L81,380.51" transform="translate(-8.06 -164.03)"/></g></svg>