<svg id="Capa_1" data-name="Capa 1" xmlns="http://www.w3.org/2000/svg" viewBox="0 0 592.19 834.65"><defs><style>.cls-1{fill:#c22a39;stroke:#656565;stroke-linejoin:round;stroke-width:0.8px;}</style></defs><path id="path5316" class="cls-1" d="M516.78,841.23l12.2-7.88,11.32-20,20.45-14.89,15.56-19,5.37-25.65,6.62-22,7.57-12-2.67-22.06-6.87-15,9.39-9.93H603l12-7.31,1.56-16.19-4.17-5.75-2.61-26.12,13.57-39.7L626.5,559l22.44-16.05,18.17-.36,23.51-16.76,4.63-9.27,8.54-5.71,11.4-22.11,5.7-8.92-.35-17.47L713.41,457v-7.13l-9.26-20.69-5.7-3.57-2.85-16.76-3.92-62.41L697,335.7l-1.78-9.27,3.91-3.21.36-4.28-4.63-2.49-.36-11.77-11-15.34-11.4-23.18-8.54-27.46-7.13-14.62.71-16.05-5.34-3.57,4.63-29.24-4.93-12.54-14.21,3.06-8.42-.12-12.94,5h-5.74l-10.78,2.89-7.91,2.89h-10l-5-3.61-8.89-.72-11.5-13-3.59-.73-3.6-6.5L551,149v-7.23l-2.87-2.16-8.63-8L533,124.45v-3.61L523,109.29h-4.31l-4.32-5.78-.71-5.78-5-6.5-4.32-2.16-5.46-4.36-.44-5.61,1.85-7.1-3.6-4.33-4-2.23-.46.2L483.22,72l-6.63,7.65-11.22-3.57L460.78,68V60.29l-2-7.65L437.83,39.38,419.46,20,414.87,8.27l-20.4,94.36-6.63,6.12-13.77,2-3.06-5.1-4.59,1.53-4.59,6.63-10.71-1.53L319,109.26l-.51-3.57-7.65.51-4.08,3.57-8.16-.51L292,100.59H274.1l-5.61,5.1-8.16,5.61-2.55-2.55.51-10.2-5.61.51-11.22,7.65-3.57,6.63L223.61,123l-1.53,7.14-11.22,4.59-3.57-2.55-6.12,6.12h-5.61L192,134.76h-7.65l-3.57,5.1-7.14-1-9.18-10.71-3.57,2h-3.57l-5.1,3.57-5.61-4.08-6.12,1-11,9.85,2.49,7.93,11.7,8.27,4.13,11L134.75,174l3.44,15.17,17,11.95,7.4,16.78-4.13,8.27-7.57-3.45-6.2,4.83,6.88,11,36.82-4.6,11,15.86,4.82,22.76,13.08,17.94-4.82,11,.69,16.55H201.49l-12.39,2.76,11.71,14.44,28.62,8.41,17.67,15-7.61,10.43-9.64,9.66h-11l-8.26,15.86,17.89,2.76L238.8,387l13.08,20.69-4.82,9,11.7,11.72-7.57,6.9,8.26,11-4.82,15.17,5.51,11-18.59-1.38-6.88,6.2,10.33,9-9.64,15.86,8.26,6.21v12.41L256,523.6l-11.7,8.28h-9.64l-2.07,6.21-6.88,9.65,9.64,5.52,8.95-4.83,2.75-6.89,9.64,4.13,1.37,9.66,6.92,7.35L276.56,583l4.22,6.34,15.13,6.25,12.32,6.81,15.19,22.09,33.79,14.81-.71,7-16.89-2.11-16.89,4.93-3.52,20.46,28.59,21.14L358.23,695l20,3.71,8.76,7.37,4.37,11.48,16,5.06,2.59,2.49,7.11.06.32-8.15,4.22-2,8.3,2,11.77-1,.28,3.36,12.71,6L462.73,745l11.83,11.52,1.37,12.07-9.46,16-7.1,4-.19,5.77,14.45,18.4L490.26,833l6.82,4.5,2.88,4.6Z" transform="translate(-129.1 -7.87)"/></svg>