<svg id="Capa_1" data-name="Capa 1" xmlns="http://www.w3.org/2000/svg" viewBox="0 0 529.76 829.96"><defs><style>.cls-1{fill:#c22a39;stroke:#656565;stroke-linejoin:round;stroke-width:0.8px;}</style></defs><path id="path5388" class="cls-1" d="M655.77,465.33l-28.35-31.59-4.86-34-13-9.72-4.05-20.25-13-13.77V341.41l13.77-11.34,13,8.1,7.29-4.05-2.43-24.3-20.25-8.1-22.68-17,5.67-4,4.86-47.79-33.2-35.63-11.34,14.57-14.58,3.24-4-9.71,9.72-9.72V170.51l-19.44-35.64H508.36l-8.1-14.58,6.48-6.48-4.86-7.29-8.1,9.72-13-9.72,3.24-19.44L476,80.61l-16.2,1.62L450,94.37l-4.86-9.72V70.89L459,69.27l-4.86-6.48-11.34-4.86-4.05-4.86-8.1,11.34-9.72-.81V55.5l-7.29-4L410.35,66l-19.43,6.48L387.68,45l-4.86-4L370.67,47.4l-12.15-4.86,7.29-9.72V17.43L358.52,28l-12.15.81-2.43-11.34-15.39-4.86-5.67,11.34-11.79,9-9.36,11.78-9,2.08-3.48,5.56,20.84,18.76,14.59.69L333,85.66l-6.26.7,6.95,17.36,20.84,20.14L367,128l4.87,4.87v25.7l6.94,7.64,10.42,6.94,12.51,13.9L392,188.46l-3.47,9.73,16,13.89,16.67,18.06.69,15.28L433,256.54l-2.77,27.09H303.12l-62.52-9-6.95,13.2H223.23l-8.33-9.73L201,277.38l-38.9,20.84-1.39,9.72,16,1.39L183,321.14l15.28,6.25,33.34,4.86,16,16L251,364.9l2.78,14.59,11.11,7.64,10.42,22.93,18.76-1.39,9.72,13.89,5.56-3.47,1.39-2.78,20.14-1.39,1.39,22.23,9.73,2.78,6.25-6.95,20.14,2.78.7,18.76,19.45,36.81,18.75,25L435.1,524,340.63,635.82,280.89,615l-43.54-7.17-3.16,22.45-13.13,1.25-1.26,9.38,10.64,5,2.5,11.26,5,6.88,10,4.38,3.75,30,9.39,10,44.42,1.87,28.78,23.78-10,10,.63,26.9-9.39,15-10.63,1.88-3.13,6.25,11.89,11.89L350,818.59l2.5,16.26L365,841.73l2.5-13.13,14.39-3.13,65.7-43.17,33.16-2.5L487,760.4,520.13,731l1.25-5h9.39l.62,9.38L548.28,751l13.5.91,20-1.82,15.41-8.41,7.71-10.51,30.84,2.1,21-13.32,11.91-1.4,16.82-19.62-1.4-16.82-10.51-1.4-16.12-27.33-9.11-4.2L644.83,638l28-20.32.7-6.31,6.31-4.9,2.8-7.71-7-6.31v-4.91l14-9.11-11.92-7-1.4-27.33-22.42-11.91-2.11-8.41L658,506.68Z" transform="translate(-160.32 -12.17)"/></svg>