<svg id="Capa_1" data-name="Capa 1" xmlns="http://www.w3.org/2000/svg" viewBox="0 0 834.26 467.31"><defs><style>.cls-1{fill:#c22a39;stroke:#656565;stroke-linejoin:round;stroke-width:0.8px;}</style></defs><path id="path5145" class="cls-1" d="M447.37,535.2l11.87,1.22,9.42-5.32,1.23-9,9.42-5.73,9-1.23.82,2,15.56,7.37,3.69,13.92,11.87,10.64,12.28,3.69,7.78,12.69L544,589.24l3.28,6.55.4,11.88L553,619.13l4.91,2.46-.82,5.32-7.37,3.28.41,4.09,6.55,2.05-1.23,9.82-5.32,3.28v4.09l9.55,4.56,5.28-1.76,2.82,1.41,29.93,1,10.92-4.22,2.46-7,6.69-2.11,8.81-7.4,4.23-16.55,16.55-16.2L672,602.08l5.63,6,4.58-1.76V596.8l11.63-9.51,1-7.75,12.68-3.17,8.1,2.47,1.41,3.52,22.19.35,2.46-3.52,15.5-2.82,9.15-6.34V559.47l8.1-2.47,2.12,4.58,10.21,2.11L819.59,569,833,567.57l10.91-2.12L832.72,537,810.2,508.56,793.91,495l4.34-13-14.1-17.36-15.2-.54-7.59-9.23,1.63-10.3-17.91-7.06-1.63-7.59,3.8-6.51-10.31-9.23,2.17-21.7-29.3-48.84-9.76-5.42L710.9,329l-2.72-4.34-13.56-3.8,6-10.85-.54-4.88L680,291l15.73-6,1.63-13.57-2.71-6.51,13-6s-2.71-12.48-2.71-15.19,4.88-23.87,4.88-23.87l10.85-11.4-2.9-16.24-22.35,9H688.7l-4.36,3.36-.67,16.44-1.34,2.69-6,.33-15.1,14.43-1,8.39-5,2.68-7.38,2.69-3.69,6.37,1.68,8.72-4.7,7.72-4.7-.34L628.31,265h-6.37l-6.72,5.71-4.69.67-4-7-19.79,5-5,4.36-1.34-2.69-15.77-.33-4.7,5-9.39,1.34-2.68,9.4-15.44,16.1L514.91,306l-9.73,6.37-1.35,4-4-.33-22.15-16.11-13.42-2.35-10.06-23.82V256.64l-9.06-3-4,3L431.36,258l-14.43,13.08-4-3.69-5.37,1-3,4,.67,6.71-5,2.35-.67,4.69-13.09,6.71-5-.67L376,281.13,366.56,276l-5.81.54-4.41,5.08-1,13.9-3.39,1-5.08-4.41-12.54.34-1.7,3.05-2.37,2.37-6.78-4.4-8.82-.34-7.12-10.17L296,284.63l-7.46,6.78-28.81,3.73-10.85,7.8H237.69L235.32,308l-9.16,1L223.45,306l-7.12,9.83L215,335.14,208.2,344l-5.09-.68-2,3.05-7.8,4.41-2.71-1.36-2.37,7.8L178,369.72h-6.11l-2,6.1-11.53,8.82-2,7.79-8.81,3.73-8.48.68-9.15,5.76L122.77,405l-2.71-2.71-.68,4.07-5.09,2-11.86,7.8-5.76.34-2-2.37-2.37,2.37,2.37,3.39-5.42,3.39-6.44-.34-3-4.41-14.58-2.37-7.39-4.07-2.66,7.49.93,3.69,9.84,5.23.62,12,5.23,3.08-6.15,4v2.15l3.07,2.77-1.23,3.39L64.63,458l-.31,2.77L52,469.74l1.53,4.92,4,1.85,7.08,12,4.62.62.61,7.38-7.38,8.62-5.23.62L48,511.58l-13.54-.92-3.39,4.62L24.32,519l-8.69,1L15,530.29l-4.27,3.13-.28,5.69L13.85,542v2l8.25.85,3.13-6,7.11-3.13,3.12,1.71-.28,7.39L38,546.22l2.85-4.84,6-1.42,2.84,2.84,3.7-5.69,6-.57,9.1-10.23,4.55.85,19.06-11.38,6.82-16.49,2-.85,1.71,4,4.27.57,15.07-8.82,1.14-5.4L137.85,478l5.4-10.24,5.4-2.27-.28,5.12,5.69,19.62-.29,6.82-4.26,2-1.43,6,4.84,3.41,2.84-4.27,6,.48,4.53-3.37-6.91-5,4.23-2.3.38-6.14,4.22-1.16,2.31,6.15,8.45,4.61,1.92-5.38,10-5.38v3.85l16.9,1.53,8.83,6.91h9.22l4.6-3.07.39-10.75,5.38-4.23,1.92-23-6.92-7.68-3.45-2.69L226.2,437.1l2.69-3.46h6.91l4.61,6.53,13.44-.39,3.84,5.38h9.22l6.14-3.46,3.46,6.92,8.06,4.61,6.15-1.92.38-13.44,2.69-2.31,6.91-1.92,5-6.53L326.81,426l1.92,3.07,25.73,2.31,10.37-6.92,9.22-.76,3.45,5.76v32.26l-4.22,3.84v6.91l1.92,2.69-.77,8.83,10,6.14,2.68,18.44,8.84,10.37,21.89.76,1.92,2.69.38,3.07,8.45,10.37,9.5,3.48Z" transform="translate(-10.04 -191.87)"/></svg>