<svg xmlns="http://www.w3.org/2000/svg" viewBox="0 0 657.4 817.75"><defs><style>.cls-1{fill:#c22a39;stroke:#656565;stroke-linejoin:round;stroke-width:0.8px;}</style></defs><g id="Capa_2" data-name="Capa 2"><path id="path5292" class="cls-1" d="M197.4,743.89l7.43,4.57,22.3-3.43,11.44,1.15,5.72,5.72,20,5.71,8.58-4,22.87,1.72,14.87,6.86,4,26.88-12.58,6.29-1.72,10.86,5.15,5.15,4.57-7.43,16.58,2.29,12,16,23.45,11.43h15.44l1.71-10.86L389,811.94l13.73,2.29,7.43-3.43,1.15-16,21.15-1.14L453,780.49l5.15-54.32,8.58-4,16.2-19.38L479.61,684,462,676.36l-8.24,3.54-8.24,11.18L433.7,695.2l-2.35-9.42,9.41-7.06,3.53-24.13s-5.29-13.53-1.17-15.3,11.77-2.94,11.77-2.94l1.76-5.89,4.71-4.12,2.94-6.47-9.41-4.12,6.47-5.3-7.06-1.18L452.53,604l-2.94-2.36v-6.47l5.89-2.36L456.65,581l-8.82-5.88L439,557.48l-4.12-.58-.59-11.77,5.89-5.3,1.17-3.53-5.88-7.06,2.35-6.48,4.71-5.88-6.47-5.3,4.12-2.94,8.24-44.14-4.71-14.71-9.42-4.71V432.72l12.36-5.89,8.24.59,6.47,8.83,1.77-14.12,8.83-.59,3.53-7.06,2.94,4.12,8.83-1.77L499,434.49l6.47-10,21.19-.59,4.71-8.82,5.29-1.77,5.89,5.3.59,5.3,21.77-1.18,2.94-7.06L579.65,411l4.12,7.65,17.07-.59,1.77-5.88-8.83-7.06,5.88-7.66,9.42-1.76,3.53,5.88L655,400.36l17.07,18.83,17.66-2.94,1.76-9.42-5.29-4.12-18.25-22.95L665.58,335l8.24-3.53.59-10.59-21.19-19.42L652.63,285l-4.12-6.48-1.18-15.3L675,232.63l3-17.66,11.18-18.83,7.06.59,31.78-10,14.71-18.24,4.71-24.72L730.9,124.93l-1.76-22.36-2.94-1.77v-13l16.47-14.71,1.18-13L752.09,49l1.41-9.86-19.7.14-16,12.23-23.51-.94-5.64-8.47L668,34.59,656.68,17.66l-25.39-.94L589,38.35,588,47.76l-35.74,62.06-21.63,5.65-9.4-14.11-7.53.94L509,123l-14.1-5.64-8.47,4.7,3.76,9.4-15,12.23-3.77-11.29-12.22-4.7-14.11,16-25.39-9.4-6.58-13.17,5.64-9.4-15.05-1.89-15,10.35,5.64,5.64-7.53,2.82L384,151.2l-3.76,5.65-11.28.94-5.65-6.59h-7.52l-6.58,6.59-8.47-11.29-7.52,2.82,2.82,8.47-1.88,8.46h-6.58l-5.65,12.23,12.23-.94-1.88,19.75-3.76-4.7L320,199.17l-11.28-6.58-22.57,12.22-16,25.39-4.7-8.46h-15v-9.41l13.17-5.64.94-4.7-14.11-17.87L236.3,181.3l-8.46-14.11,1.88-16.93-9.4-6.58-20.69,1.88-18.19-10L176.87,152,165,153.7l2.55,10.21,6,5.1v20.42l6.81,6L176,203l-8.51,3.41-18.72,24.67H133.48L125,260.89l-.85,40.84-9.36,19.57H107.1l-10.2,9.36,1.7,12.76H108L123.27,357l-7.66,14.46L106.25,374l-2.55,7.66,6.81,6.81,7.65,11.91L108,404.67l.86,6.81L119,414v11.91l-10.2,3.4,9.35,10.21L138.58,443v15.31l-6,6,10.21,8.5,26.37,2.56,4.25,8.5-28.07,7.66-34.88-4.25,22.12,34L176,549.3l36.59,4.26-23,29.77-19.57-1.7L160.7,596.1l-5.95-6.81L140.28,599.5l-2.55,34,17,21.27,13.61,36.58,5.38,51.5Z" transform="translate(-96.5 -16.32)"/></g></svg>