<svg xmlns="http://www.w3.org/2000/svg" viewBox="0 0 608.29 836.5"><defs><style>.cls-1{fill:#c22a39;stroke:#656565;stroke-linejoin:round;stroke-width:0.8px;}</style></defs><g id="Nuqui"><path id="path5350" class="cls-1" d="M521.3,812.89,517,829.49l-3.79,1-7.59,10-8.07-.95-6.16,5.69-3.32-2.84,4.27-7.12V824.27l4.74-4.74.95-5.69-6.64-5.22-.48-11.86-6.16,2.85-11.86-12.33-.47-6.65-7.59-1.42-9-9.49v-10.9L444,752.65l-1.43-12.81,4.27-4.27-1.42-4.27-5.69-.47-15.65,10L417,736.05l-5.69,1.42-7.12,7.11-18-2.84-12.33,1.9-6.17,4.74h-9.49l-3.32,3.32-7.58-8.54L351,737l-.95-7.12-12.81-8.53-5.21,1.42-2.85,17.07-4.27-3.79h-4.27l-1.42,6.64-10.43,8.07-7.12-3.8.95-8.54-9.49-3.79-5.21,7.11v16.61l-4.27,8.06-7.12-5.69-18,3.32-3.32,2.84-17.08,2.38-.95,14.23-10,11.85h-14.7L209.2,802l-7.12.47-4.26-4.74h-8.07l-3.32,5.21-8.06-2.84-1,11.38,2.85,3.8v13.28l-4.75,2.37-1.89-5.69-8.54-.48L163.66,829l-10-1.9-5.21-3.32-3.8-7.11-9-2.37-14.23-.48,4.41-15L147,781.5l3.1-9.22-4.59-8.77,1.29-12.08,7-11.89L154.84,717l-1.29-11.81,6.18-8.39-3-12,1.07-8.59,13-12.88,2.12-17.18,7.45-.68,9.58,17.92,14.85,4.24,23.55,1.9,36-25.52,22.31-21.47,28.69-5.37,27.63,3.22,2.12,15,6.38,8.59,35.06,7.51,6.38-4.29h7.44l17-16.11v-11.8l17-8.59v-5.37l-10.63-7.52,1.07-7.51L440.67,585,446,573.14l-3.19-9.66-.43-3.93,18.49,6.08,12.6-4.6,14.39-26.74,15.46-14.79-4.22-8.22,7.78-7.88,6-2.9,15.56-14.29L541.37,462l1.54-37.39-3.16-35.1,1.89-7.89h4.51l5.26,6.83-3.76,9.87,9,4.56,3.75-9.87,4.51-3.8v-6.07l-10.52-2.28,6-10.63-4.67-1.92,9.77-9.87v-9.87l-11.27-3-.75,12.91-5.26,9.11-6.77-8.35L540,346.29l-18-36.43-11.27-9.11-.75-17.46-13.53-14.43-.75,6.08-6.21,4.27-3.59-13.11-6.3-6.71-5.69-9.5L473,238.73l-9-6.07.72-30.76-6.76-7.59,2-20,5.26-8.35-14.28-27.33-12-5.31-3-6.84,10.52-3.79L432.1,111.32l3-22L419.32,55.15l6.92-4.5,9.88,3.68,7.81-7.53,11.71.28L457,52.65,462.61,56l3.06-3.63-3.34-5.85,3.06-16.17L475.71,12l7-2.51L496,9.87l-1.89,18.51L491.81,33l1.38,7.38,4.62,3.23.92,11.53-6,6.92V81l-5.07,3.69L489,95.74l8.31,2.77,1.84,3.23,22.15,13.84,1.84,8.76,7.38-2.3,1.85-3.69,5.07.46,9.69,11.53L549,149.26l9.69,19.37v7.85l-3.7.92-1.84,12-6.92,7.38.92,3.23,8.77,2.77,11.53,11.54h14.76l12.46,2.3,8.3,11.54,10.15-2.77,2.77-6.46h5.54l5.07,3.23L632.06,212h5.07l10.62,16.61,8.76,1.84,16.61,10.61,7.38.46,13.84,7.39,3.23-4.16,9.69.93,21.22,23.53.46,16.14L725.71,296l-12.91,2.77-7.39-.92-3.69,2.31-1.84,7.38-4.62,3.69-6.45-1.39-8.31,6.92-1.38,6h-6L669,327.8l-5.08,13.38L657,345.79l-3.23,13.38,4.16,5.07-2.77,24.92,5.07,5.53,5.08,2.31,5.07,6.92,4.15,19.38L672.2,427l-.93,10.15,2.77,4.61-3.69,2.77-.46,5.07h-12v2.77l-6,1.85-6.92-6-6,.92-4.61,5.54-5.54-.46-6.46-4.62-5.53,3.23-.93,7.38-1.84,1.39-5.54-3.23-9.23,12.92v13.84l-6.92,10.61,3.23,12,6.46,1.85L609,520.64l-.46,17.53,13.38,12.46v8.76l-4.61,2.31.46,3.69L627,575.54l4.16,7.38,17.53,14.77,1.38,6,2.77,1.85v4.15l-10.61,5.54,2.31,17.07,8.76,4.15-3.69,8.76-10.15,1.85-14.3,9.69-5.08,18.91-12.45,11.08V697.8l23.53,17.53.92,12.46-2.77,6.45-4.61,23.07-6.46,24.91-5.54,3.69L605.76,779l-10.61-.46s-24.45,12-25.83,13.84-6,10.62-6,10.62l-9.23-.93L528.26,791l-.47-5.08L525,787.3l-3.23,10.61,4.61,6.92-.52,7.1Z" transform="translate(-121.05 -9.04)"/></g></svg>