<svg xmlns="http://www.w3.org/2000/svg" viewBox="0 0 844.01 467.23"><defs><style>.cls-1{fill:#c22a39;stroke:#656565;stroke-linejoin:round;stroke-width:0.8px;}</style></defs><g id="Litoral_de_San_Juan"><path id="path4352" class="cls-1" d="M783.23,371.17l-6,.5-2.18,3.77-4.37,2-6.56-4-3-.4-1.39,2.18-7.95-2.78-3.58.2-2.18,2.58H740.5l-3.58,1.59-4.57-.39L729,373.85l-8.15-.59-1,1-7.55,1.59-.79-1.59,1.78-2.19-.39-4.17-3.78-2-.59-5.76-5.37-3.77-.6-2.19,3-1.19-3-2.19-.19-2.78-5.17-4-2.72-3.67-5.57.89-1.54,1.32h-3.3l-.44-3.95-4.17-1.76s-2.2-3.3-3.08-3.52-9.23-.66-9.23-.66l-2.64-1.54,1.76-2.85-2.64-1.54-7.69,4.61-.66,4,1.54.66-.22,2.2-5.71.22-2.2-2.86h-3.74l-1.53,5.06-1.76-2.42-1.76-.66-.88,2-5.27-1.76v-3.08L628,332.26l-.88-4.61,3.52-3.08-1.1-2.42-1.32-.66-2,3.08-6.81-5.05-7.69-1.1-2.2-1.76-1.76-.22-.66,1.54-7.91,2-1.32-3.52-2.63-2-2,2.2-2,.44-1.54-.66-1.54-2.86-4.61,2.2-.22,3.74,2.2,1.75.22,3.74h-1.1l-1.32,5.71-3.74-3.51-5.93.44-1.54-2L570.43,327l-3.07-2.42,4.17-1.1,1.76-2.2-3.74-.66-.22-3.73-2.19-1.54-.44-5.06,4.39-2-.44-1.54-3.73-2.2-1.76,1.76h-2.42l-.88-2.64-2,.44-1.31,4.18-2.2-.44-2,2-1.32-2.41-3.52,2-2.63-1.76,1.32-2.64-1.32-3.08-3.52-.22-1.76,1.1,1.54,4.18h-2.42l-.66,3.95h-1.53l-2.2-1.31v-3.52l-4.84-.66-1.1,1.54-5.49-5.72-1.32,3.08,3.3,3.3-.44.66-5.28.22-1.09,1.1-.66-2.86-1.1-.88-5.72,4.62v-3.74l1.54-1.54-2-5.93-5.05-.44-1.1-2,3.08-1.32v-3.73l-3.74.66-3.95,6.81-1.1,2.86-1.54-1.1-.22-2.2h-2l-1.76,1.76,1.54,1.76-.44,2h-5.71l-1.54,1.76-2.86-1.76v-2.19l2.86-3.52-3.3-3.74-1.76,2.42L482.31,300h-2.2l-.66,1.1,2.86,1.76-1.76,2.41H477l-.66,2.86-2-2.64V302.6l-1.31-.88L470,305.89l-1.76-3.95-3.74.44L463,304.79l-.22,2.2-3.52,3.3,1.1-5.28-3.52-2.41,2-1.1-2.64-3.08-1.31,2.2h-4l-4.18-7.47-3.95,1.31-2.42-1.53h-2.42l-2.41,3.51,2.85,1.32.44,4.18-1.76.87-1.75-3.51h-4l-2.64,4.39.22,3.74-5.27,3.74-2.42-1.76-.22-2.64-12.53-7v-4.62l-2.41-7.47-13.41-1.54-2,3.3L388,293.8l-4.84.44L373.08,283l1.76-3.51,3.52-3.52.22-3.95L372.86,269v-2.2l1.31-4.58-3.91-.21-5.54,2.22-.19,1.48-2.95.18-5-4.8-4.8-.92-.93-2.59-2.77-.74-.73,1.29-6.28,1.11-2-2.4-4.8,2.4L333,264l.55,7.2,3.14.74v.92l-1.29.55-.74,6.65-.92.19-.37,1.48,1.66,2-.37,6.83-5.36.19-1.1-2.59-2-.18-.55-2.22-5.17-4.25-2.22,1.66-1.84.19-1.11,4.25-8.31.55-5.36,3.51-4.8-.37-2.59,1.11-3.32-.18-2.22-1.67L289,286l-4.8-2-4.25,3.14-6.47,2-2.77-.73-.92,1.29-3.32.18v-2l-.74-2.21-3.88-1.11-.56-3.33-1.1-.55-.93-2,2.22-1.29-.74-4.81-3.14.19-3.51-4.8,3-1.11-.37-2h-5.18l-4.43-3.33-.37-2.58L243,257.37l-2.59-5-2.95-.18-1.3,1.1-3.32-3.51-2.77,1.11-3.51-5.35,1.66-2v-3.33l1.66-1.29L228,234.65l-1.85-.55-1.85,1.47h-1.47l-.93-4.06-2-1.11v-.92l2.59-2.22.18-3.69-3-2.4L217,223l-.73-2.77-5.91-1.1-2.78-2.59-1.84,1.11-1.48-.37-.55-3.14,1.1-1.29L202,210.08l4.25-3.32-.37-2-3.88-.19,1.85-1.1L202,199.56l-2.4.37-.37-3.33-5,.19-1.11-4.25L189.8,192l2.22,5.36-2.77.55-3,1.3v-4.62h-2.21L183,199.19l-2.59-1.67-.55-3.87-1.66-1.3-2.53.78,1.48,1.52-2.94,2.59-7.37-.74-5.15,2.22-1.85,17.78,5.16,3.7,5.15,11.48-1.1,5.19-2.21.37-1.47-4.45-1.84,3h-2.58L158,232.05l-2.21,1.85-1.1,16.67-2.58,19.26-3,17-2.94,9.26-2.58,6.29,2.21,1.48,4.79-4.81,12.69-1,6.63-4.45,1.84.75,1.1,6.29-4-1.85-3.68,2.22-7.81,1.11-5.89,5.19-8.47,3-1.47,2.22,1.84,4.45,3,2.59-1.11,4.07L140,319.57h-3.32l-1.84,2.59v6.3L130,334.38l1.47,5.19,2.58,2.59,2.57,4.45,3.32,1.85,2.58,1.48,2.21-2.59-.37-2.22-1.84-2.23-.37-3.7,1.47-.37,1.84,4.81,2.95,4.08-2.58,3.7-1.84.74-2.21,1.48-5.16-2.59-2.57-3.33h-4.79l-2.58.74-8.83-.37,3.31-3h3l2.94-1.86-1.1-2.22h-1.84l-4.06,2.22-3.31.75-1.47,3.7-3,3.7-2.94.37-6.26,5.56-1.48,7.78-5.52,7.77-6.47,10.5-9.34,4.83-3.79,2,4.12,1.46,11,4.08L97.59,401l2.21.37-2.58,4.07H93.54l-2.58,3v1.85l4.42,4.07-.74,1.11-8.84-1.85-3.31-3L76.6,411.7,74,413.55H69.6L67.39,415,67,419.11l-2.2,3L60,423.18l-7,3.7-3.31.37L44.2,431.7l.73,1.85L44.2,435l-2.58-1.48v-3.7L35,433.18,34.62,435l-2.21,1.11-2.77-3.22.52-5.76,5.21-1.57-1-3.14,8.33-6.29,5.21-10L43.18,402,33,404.6,24.43,413l-4.68,1.05-6.25,7.85v14.67l-2.1,20L3.59,471.73,7.24,477l7.81.52,4.68-5.23,2.61,1L26,474.35l4.17-4.71L35.3,467l10.47,1.63,8.33-7.33h4.17l9.37,8.9v2.1l-5.73.52-8.85-3.67-6.77,3.15,8.33,1,7.29,2.62L64,481.16,75.45,488,89,490.06l-5.73,2.62-13,.53L63,500.54l-3.12,8.38-3.09,3.73,15.13,1.57,7.52,4L85.88,522l11.17-.92,7.24-6.88h11.14l1.25-5.69,7.67-7.65,8.91-16.79,15.61-4.7L160,483.82l14.86,15.56H186l3.72-6.67,5.94-5.19-.74-19.27,9.66-14.82,11.88-2.22,8.3,3.7v33.35l8.79,11.12,5.2,1.48.74,3.71L249.91,509l4.45-3.7,3-5.93,6.69-2.22,8.92,1.48,17.83-7.41H295l8.17,11.11,8.92,6.67,5.15,8,2.35,15.11,11.25,9.9.67,9.74,12.92-.84,1.18-6.55,5.85-3.46,5.2,12.6,8.92,2.22,5.2-4.45,10.4,3.71,17.09.74,15.6-8.89,5.94-12.6,4.46,2.22,3,5.19,10.59.74,7.06-4,10.4-.75-1.81,8.53,7,6.57,5.44-1.81,13.36,4.52,2.72,4.76-1.59,3.4,3.17,2.94,4.76-1.81,3.39,2v7.7l2.72,1.35,4.75,1.14,9.51,6.11L507,590.51l3.17,3h2.49l1.14,9.28,9,5.21,2.66-4.82,12.63-.74,10.4,7.41-4.45,5.93H550l5.94,8.15,8,2.19,8.17-2.22,9,2.25L588.5,635l5.61,3.52,3.43-2.78,11,3.35,4.12,4.13,12,3,19.19,1.24,3.49,2.5,1.5,2.24,10.46,6.23,4-2,3.24-4.49,8-1.49,4.74-6,3.24-1.49-1-5.23L689,630.5l2.24-.5,8-3.74L702.4,620l3.49-2,1.5.25,8.22-2,1.74-2.74,4-6.36,5-1.12,2.5-2,3-3,3.24-.25.49-2.75,3-3.73,6-.5,6.23-5-.25-5.73-3.24-3.74,1-2.24,2.25,1,3.48-2.24,7.73.49,3.49-3.73.5-3.74-3.49-2-.75-3.49,2.24-2-.5-6.73-2-2.74,4-2.49,1.74-3.49v-2.24l3.49-4.73,5.48-2.5,1-4.23,2-1,7.17-5.23,6.73,1,5.37-4.81,6.63-.76,8.37-1.47,5.43-5.41,6.4-5.4,7.19.9,5.84-4.39,5-1.67,3.75-4.52L844.23,493l.41-2.69-3.56-8.51.73-7.24-5.66-6-5.44,2.54-4-2.18-2.54-.36-4.34,2.17-2.54-2.17L818,461l-13.4-6.88.73-2.17-2.9-3.26,1.22-7-4.71-14v-9.42l2.31-5.73-2.56-11.4,6.47-7,3.52-3.46-2.8-4.2-5.79-3.54-6.31-4.9-8.06-2.11ZM12,531.86h2.57v-6.29l4.05-1.49,1.85-3,.36-3,4.79-2.59h6.26l5.52-2.23,5.16-1.48,3.31-3,1.84-3.33,5.53-.37,7.36-4.45,6.26-9.26h5.52l.37-1.48L68,487.79l-1.11-1.48-14-.74-3.68,1.48v2.22l2.57,2.59-1.47,2.6,1.84.74v2.22l-4.78,3-5.53-2.59-2.94-1.48-2.58.74,2.21,1.11-1.84,1.11v1.48l-2.21-.37.37-6.29L38.51,493l1.84,1.12.74,1.85,3.31-1.85,1.47,1.11.74,1.85,2.58-1.85-1.48-3-3.31-2.59v-3l4.42-2.59.37-.37h8.1l5.52-1.49v-1.11l-4.42-3-6.26-.37-1.84-1.85-2.94-1.11-5.53,4.44H38.14l-6.26,2.22-2.58,2.6,1.84,1.48.37,12.59-3.31,3.7H26l.37-1.85,2.21-3.33-.74-10.37-.74-2.22-7,.74-7.73-.37-1.11,2.22,1.84,4.81,1.11,10.37L19,503l2.21-1.85-.37-4.44,3.32-1.85,2.58,3.33-2.95,2.22L23,503.72,19,504.83l-2.21-.74-3.31,1.48-.37,13-2.58,10.74Zm47.13,55.93,1.1-7.78-4.78-5.93-7.37-7.4-2.21-7.41V547.42l-1.47-1.11L41.09,550l-2.58-1.48v-8.15l-6.26-4.07L29.3,538.9H25.62l-3.68,2.22v2.22l1.84.75,5.15,7.4,7.74,3.71,3.68,9.26,7.36,6.66,5.9,9.26,1.84,4.44Zm2.21-11.11.73-8.52,4.79-9.63,9.94-6.3,1.11-3.33L71.28,540l.37-7.41,1.84-3.33-.37-5.55-9.57-5.19h-7l-8.47,8.52-7.36,2.22-5.53,1.48-1.1,1.85,1.47,3L40,537.79l.37,3.7L42.56,543h3.68l1.84,1.85V558.9l2.58,1.85v3.34l3.68,4.44,4.42,4.81Zm4.42,6.66c7.07-2.39,11-8.7,15.83-14.07l2.58-11.11-1.84-5.93H80.12L75,558.9l-7.36,5.93-3.68,7.77L63.55,580Z" transform="translate(-3.19 -191.58)"/></g></svg>