<svg xmlns="http://www.w3.org/2000/svg" viewBox="0 0 840.8 419.19"><defs><style>.cls-1{fill:#c22a39;stroke:#656565;stroke-linejoin:round;stroke-width:0.8px;}</style></defs><g id="Río_Iró"><path id="path5209" class="cls-1" d="M10.65,587.72l5.3-2.65-.53-6.37-6.89-1.06L5.35,564.92l7.42-4.24-7.42-6.37-.15-7.88,32.17-26.84,34.85-1.22,10.4,6.12,4.89,9.78,9.17,4.28,21.4-15.29,1.83-16.51,19-11,.61-10.4,32.41-34.85,4.89-1.22,3.67-5.51,11.61-1.83,2.45,2.45,18.34,3.67,8.56-9.17h4.28l.62,3.66,15.89,9.79,11-9.79h3.67l9.17,6.73,4.89,6.73H296l12.23-14.07,9.17-3.66,5.5-15.29,21.4-7.95,4.28,7.34,9.18,1.83,8.56-5.5,2.44-15.29-7.34-6.72,16.51-23.24.61-16.51,4.28-1.83V343.5H371.22v-3.67l4.17-6.19,6.67-4.35L372,322l6.17-3.36.56-9,6.17-1.68,3.36,9,12.34,6.74,2.81-7.86L418,308v5.61l24.68,2.25,12.9,10.09H469l6.73-4.49.56-15.7,7.85-6.17,2.81-33.65-10.1-11.22-5-3.93-2.24-15.14,3.93-5h10.09l6.73,9.54,19.63-.56,5.61,7.85H529l9-5,5,10.1,11.78,6.73,9-2.81.56-19.63,3.92-3.36,10.1-2.81,7.29-9.53,30.85-1.68,2.8,4.48,37.58,3.37L672,217.12,685.48,216l5,8.42v47.11l-6.17,5.61v10.09l2.81,3.93-1.12,12.9,14.58,9L704.55,340l12.9,15.14,32,1.12,2.81,3.93.56,4.49,12.34,15.14,14.28,5.09v7.2l6.58,4.78,16.15-4.19,13.16,15,1.19,7.77,8.37,1.79,20.34,23.33L841,453.66l-4.19,4.19.6,7.18,6,2.39v7.17l-23.92,7.78-5.38,6-17.94,2.39L795,524.83l-3.58,4.78s-2.4,12-3,14.95-41.87,26.91-41.87,26.91l-22.72-1.79L722,564.3l-20.34-.6-10.76-8.37-10.17.59-7.17,9.57-20.34-4.19-13.75,6L631.19,581l-7-5.42-11.67-1.59-8-8.48,8-3.18,1.59-20.15,4.24-.54v-5.3l-22.27-17L583.87,514l-4.78-30.22L568,473.72l-10.61,10.61-18,5.3L524,508.72l-2.12,17.5-10.08,9-31.28-11.66L472,513.49l-18-3.71-1.59-6.36,6.36-10.08,4.25.53-4.25-5.3L393.5,487l-3.71,17L377.59,523l-6.36,15.9-18,9L349,561.75l-24.92,17-6.37-3.18-20.15-1.06L288,590.91l-20.68.53-8,7.95h-18l-10.61,11.67-11.13,17.5-11.14,3.18-1.59-4.24-8-1.06-2.12,4.77-17,3.18-11.67-18-17-2.12L139,620.07l-1.06,5.84-4.24,3.18-3.71-9-20.68-17.5-11.14,1.06-.53,4.78-12.19-1.07-5.31-9L69,597.27l-5.3,3.18-10.61-4.24-3.71,9.54L36.1,603.63,25,592l-9.55.26Z" transform="translate(-4.8 -215.6)"/></g></svg>