<svg id="Capa_1" data-name="Capa 1" xmlns="http://www.w3.org/2000/svg" viewBox="0 0 457.26 810.03"><defs><style>.cls-1{fill:#c22a39;stroke:#656565;stroke-linejoin:round;stroke-width:0.8px;}</style></defs><g id="Capa_2" data-name="Capa 2"><g id="Capa_3" data-name="Capa 3"><path id="path5362" class="cls-1" d="M461.18,807.54l-.24,3.09,3.81,2.38,1.42-3.33L470,807.3l1.19,1.43,6.42,1.67,2.85,3.09,5-1.19.47-3.33-2.38-.72,6-4.51-2.62-7.61,4.28-3.81.48.24,4.52-2.85-2.62-2.38.48-6.66,4.28-3.09h1.42l.48-4.52h1.43l1.19-3.33-2.38-1.66-1-2.62-2.14-2.85,2.14-3.33,3.33.71,4.75-5s1.19-5.47,2.14-6l3.33-1.66-.24-11.89,5.17-9.74,3.57-1.66.24-4.52,4.52-8.33H529l3.09-4,.48-1.66,2.29-2.73,2.4-3,1.87-.2,3.73-13.47-8.29-9.95-4.14-.62-1.25-1.66,2.28-1.65-6.63-7.88-.62-4.35-3.52.21-11.81-15.54-5.6-2.28-1.86-6.22,4.14-6.63,7.87-27.35,2.49-.42.83-2.9-2.07-2.48-.21-7,2.49-6L519,573l3.91-4.16-2.55-13.76,2.39-5.46-5.47-20.17-6.49-3.07s-3.76-3.76-5.13-4.44-8.88-1-8.88-1l-7.86,8.2-1,8.89-6.16,3.07v1.71l3.76.34.35,4.79L481,554.38l-1,6.15-4.45,1.37-.68,1,4.1,1.37v12.3L471.45,581l-2.05,12-8.54,15.72L456.76,619l-4.1,9.23L452,635l-4.44,5.13-4.1-4.1,1.71-4.1s-.68-12-1-14-5.47-7.52-5.47-7.52l2.73-.68V604l3.42-2.39v-3.76l-4.44-1.37-4.1-8.2-2.74-.34L429.1,591l-3.76-.34v-7.18l2.05-2.39,2.05-8.2-2.39-3.07-.68-18.12,4.78-16.06.34-10.93,4.1-10.94V510l-5.81-4.45-2-5.46,2.74-1.37,3.07-20.16,2.39-1.71-2.39-4.44v-1.71l4.44-2.05.35-5.13-3.08-7.86.68-5.81,4.45-4.78.68-4.44-3.76-3.42L439,417l4.1-3.42,2.24-5.12-1.48-4.27-.33-11.55,3-1.65-.33-7.92-3.63-2.31.33-7.92,2.64-1,.33-2.63-1.65-2.64-5.28,1-.33-3.3-9.56-9.9v-2.31l-3-1.32-2,4.29-5.28-2.31-10.86-8.89-4.62,1.32-8.91-9.24-1-6.59-7.91-9.57-1.32-10.23,2.64-3V298l-8.58-8.24,2.65-14.87-2-5.94-.33-4.95,3.63-2.31,1.65-7.91-8.58-10.23-1-13.86,2-2.64.33-4.29-2.64-2.63-.33-8.91-3.3-3.3-6.6-16.17-1-4.62-4.93-6.24-.66-8.58,2.31-2,1.65-12.54-6.26-7.26-1-9.56,1.65-2.31V127.4l-1.32-5-7.59-.66-5.94-5.28-12.2-1.62-2.64-3.63L325.43,101l-7.25-2.64L313.56,101l-3,7.91-4.62.66-4-6.59-5.61-9.57-8.18-5.56-1.65-6.3,2.64-9.9-2-9.56-6.59-7.59-8.25-5.94-3.63-8.25,2-1.65v-3l-3.3-3-2-4.62-6.93-3-2-3.63-1.65,2-8.25-1-1.25-2.31L232,16l-1-3.45L226.6,11.3l-5.92,5.92-4.89-.38L209.38,8.7l-5.18-.49-3-4-4.93,1-.5,4.93-8.38,9.87-1.24,5.42-10.6,6.17-2,2.47-.49,3-2.47,2.22-8.88.49-2-2.22-10.86-.49-1.23,2-4.44.74-11.26-6-13.07.25-.74,1.75-3.7-3-6.91-2.45-4.36-.26L98.44,33l-6.5,7.6L90.71,53.18l-1.54,3.07.92,4.93,3.08,2.15L93.78,71l-4,4.61V88.25L86.4,90.71l.92,7.38,5.54,1.84,1.23,2.16,14.76,9.22,1.24,5.85,4.91-1.54,1.23-2.46,3.38.31,6.46,7.69,1.23,12.61,6.46,12.92v5.23l-2.46.61-1.23,8-4.61,4.92.61,2.15,5.84,1.85,7.69,7.69h9.85l8.3,1.54,5.54,7.69,6.77-1.85,1.84-4.3h3.7l3.4,2.15,3.69-6.77h3.38l7.08,11.08,5.84,1.23L210.06,195l4.93.31,9.22,4.92,2.16-2.77,6.46.62L247,213.74l.3,10.77-2.15,7.07-8.61,1.85-4.92-.62-2.46,1.54-1.24,4.92-3.07,2.47-4.31-.93L215,245.43l-.93,4h-4l-2.78,3.41-3.39,8.92-4.61,3.08-2.15,8.92,2.76,3.38-1.84,16.61,3.38,3.69,3.38,1.54,3.39,4.61L211,316.48l-1.54,2.46-.62,6.77,1.85,3.08-2.46,1.84-.31,3.38h-8v1.83l-4,1.23-4.61-4-4,.62-3.07,3.69-3.7-.31-4.3-3.08-3.69,2.16-.62,4.92-1.23.92-3.7-2.15-6.15,8.61v9.23l-4.62,7.07,2.16,8,4.3,1.23,4.62,7.38L167,393.07l8.92,8.31v5.84l-3.08,1.54.31,2.46L179.3,418l2.77,4.92,11.69,9.84.92,4,1.85,1.23v2.77l-7.07,3.69,1.54,11.4,5.85,2.77-2.46,5.85-6.77,1.23-9.54,6.45-3.4,12.6-8.3,7.38v7.38l15.68,11.69.62,8.31-1.85,4.34-3.07,15.38-4.31,16.62-3.69,2.46-4.62-4.61-7.07-.31s-16.3,8-17.23,9.23-4,7.07-4,7.07l-6.16-.61-17.21-7.43-.31-3.39-1.84.92-2.16,7.08,3.08,4.59-.24,4.85,1,7.64,6.85,2.38,3.17,5,2.11,12.4,3.43,2.11.79,4.48-.79,1.58.26,6.07-9,.79-2.11,4-9.23,2.9-.53,4.22,1.85,1.32v3.16l-1.58,2.38L109.8,638l.79,5,6.6,9-.53,1.85,9.76,6.59,10,.27,5,9.23,4.22,2.9,1.06,5.8,5.54.53,3.16,3.17,2.11-4,4.49.54,5.27,8.44,2.38,10.81h2.9l2.11-2.11,2.63.79-.26,2.9,8.71,6.07,9.75,1.58,3.17-2.11h4.22l.79-9.49,5-1.06.27-4.48,5.8,3.16.79,4.49,4,.53,1.58,2.37,4.48-2.9,1.06,2.9,5.54,4h2.9l2.11,2.11,4.22-4.22,4.75-1.59-1.58-2.37L240.1,700v-2.9l1.85-.79,1.05-3.17,1.59-.26,2.11,4.74H252l3.17-2.9h1.32l2.11,3.7,5.8-.53-1.06-4-2.63-.79v-2.9l-2.38-.53-2.11,2.11-.53-4.48,2.11-1.58h4L263,683l2.37.52,1.59,5.81,4.48,1,2.11-4.74,2.9.52.79,6.33,4.22.53,1.85,4,1.85-.53-.27-3.69,2.64-.79s5.54,4.48,6.86,5.27,2.51,4,2.51,4h2l2,2,.29,4.08,4.08.87,1.75,1.75,1.75-1.17.87-3.79h3.5l2-2.62,1.75,1.17,1.17,6.41,3.79,1.75-.58,3.21h-3.79l-1.54,2.71,4.2.74.54,1.51-2.47,2.85.58,5.54,2.92,1.46,1.75-.29,1.16-3.79,2.63.58,2.91,3.21,4.67-.58.58-7.59,4.67.59-1.75,3.79,2,1.16,2.92-3.79,4.08,2.34-2.63,1.75,1.17,3.49,4.66,1.75.88,4.38,4.66-3.79-1.74-3.5,2-2.92,5.54,1.75.29,3.21-5.83,7.87,5.24,2.92-4.37,1.16v4.09l3.79,1.75.29,4.08-7.58,1.46-.29,7.29L350.79,764l.29,2.34,8.45-1.75,2.92,2,4.08,9.33,6.13-.29.87,2.62-4.67,3.21-2.91.29v2l6.12-.29,2.92-2.62,2.62.58,1.46,6.41,4.37.59.88,6.41-2.63,2.34,1.17,1.45,2-2h1.46l2.62,5.25,2.92.29,1.46-7.29,2-2,.58-4.37,2.92.29,1.16,7-1.75,4.37.3,6.42h6.7l2-2.63-4.66-.58.87-8.17,3.5-2.62-3.5-2.33v-2.63l4.67-3.79,3.5.29,2.33,7.29L424.73,785l2.33-8.75-.58-5.25-1.75-1.75,4.37-.29,5,4.38h4.08l1.17-5,3.5,2L439.93,775,437,777l4.09,3.49,8.16-1.45,1.75-1.46,4.08,2.62-.09,7.69-5.54,1.75.29,2.92h3.79l3.5-2,3.21.58,1.17,5.83,2.58,2.32-.87,6.41L461.38,808" transform="translate(-86 -3.86)"/></g></g></svg>