<svg xmlns="http://www.w3.org/2000/svg" viewBox="0 0 833.69 771.19"><defs><style>.cls-1{fill:#c22a39;stroke:#656565;stroke-linejoin:round;stroke-width:0.8px;}</style></defs><g id="Capa_2" data-name="Capa 2"><path id="path5241" class="cls-1" d="M568.27,40,559,46H539L514.33,93.24l-20,20.65L497,133.2l-34.63,31.3-15.31,20.64.66,20.64-3.33,4-2,11.32,10.66,7.32,2,12.65-15.32,3.33-22-6-2.67-4.66-2.66,1.33V248.4l-12.65,6.66h-14l-13.31,9.32H353.18l-17.31-14.65V242.4l-6.66-18-11.32-.67-23.31-24.64v-6.66l-8-6H273.94l.67-10-8.66-14-12.65-.67L246,156.5l-6.65,1.33L230,170.48H217.34l-6.66-6-7.32,8.66-8.66-6-11.32-21.31-13.32-5.33-6.66,1.33.67-9.32-14.65-7.33-6.66-14.65-16.65-9.32-22-2.66-4.66-5.33H84.83L63.52,104.56l-9.33-.67-14-18.64-11.32-2-5.33,4,1.33,14.65L14.24,115.21l-7.3,1.1,0,12.27s1,10.52,3.13,13l16.69,19.3,1.57,5.74,6.26,7.82,25,3.65,2.61,18.78L69,204.73l.52,28.17,7.83,4.17L79,256.89l18.78,16.69.52,2.61L94.08,283l1,16.16,10.95,19.3,19.3.52,28.69,21.91,1.56,10.43,28.69,15.13,20.34,4.17,39.11,17.73,3.13,10.44,4.7,4.69-.52,5.22-4.7,5.73,9.91,19.3,31.3,24.51v4.18l-3.65,5.73,5.73,12.52,9.91,3.13,5.74,5.22v15.12L322,527.06l1.56,9.91,3.65,3.13L323,547.92l-9.71,3.1-9.69,6.76v9l-6.88,7.74h-12l-6.87,7.73,3.43,20.19,5.16,3,6,11.6,9.89,1.72,1.71,5.59-1.71,4.72L307.93,642l15,6.45,3.44,11.17-3.87,14.61,3,11.17,8.16,3,2.15,1.29,1.72,18.9,6.87,3,4.73,5.16.86,13.31,6,8.17,11.18,8.59.42,6,6.45,4.72-6.45,2.58,1.29,4.73,11.6,8.16,1.29,12.46,8.17,4.3.86,9L387,803.54l1.72,3.44L405,803.54l2.14-2.14,17.62,1.29,7.3,5.58,9.89.86,7.73-3.44h12l4.73-5.58,7.73-.43,17.19,6,3-4.72,6.45.86L515,810.42l9.45-4.29,4.73-8.17,13-.9,1.59-21L534,770l-14.4-14.39,1.52-9.85,4.54-4.54L527.9,723l6.81-6.06-6.06-12.12L534,695l9.84-.76,9.85,6.82,6.82,2.27,7.57-6.82L588.5,692l18.22-.78.89-8.32,16.31-8L641.17,673l7.53-11.28L661.38,657l9.46-20.59-6.32-12.9-9.84-2.27-8.34-12.12-14.43-4.24-19.7-10.6-3.78-10.61L601.55,571l-.76-10.61,3-11.36.86-15.65L611.5,522,625.89,513l14.05-13.63,8.76-25.41L646.07,452l7-46.44L661,392.42l15.77-43.81,7-23.66,18.4-23.66,14.9-23.66,17.52-19.27,21-9.64,29.8-18.4,11.39-20.16,11.39-21-1.75-30.67,5.25-28.91L824,120.64l9.73-12,6.06-3.26-12.9-.87L817,113.46l-24.58-1.26-8.51,7.57-6.3.94-5.36-7.25-19.54-.63h-5l-3.78,6.62L730,122l-.31-6-19.23-5.68-4.09.32-5,5.36-16.71.94-.94-3.78-2.21,3.78h-6L673,113.47l-17.64-.63-7.25,6.93-4.1.63-.31-6.3-14.18-8.51-1.89-9.14-13.87-.63-8.82-11.34-4.73-1-5.36-5.36V66.83l-9.77-3.47L571.2,48.55l-2.52-8.5" transform="translate(-6.54 -39.64)"/></g></svg>