<svg xmlns="http://www.w3.org/2000/svg" viewBox="0 0 838.53 489.08"><defs><style>.cls-1{fill:#c22a39;stroke:#656565;stroke-linejoin:round;stroke-width:0.8px;}</style></defs><g id="Condoto"><path id="path5215" class="cls-1" d="M832.07,308.1l-13.27-1.81-9-9.65,9-3.62,1.81-22.93,4.83-.61v-6L800.1,244.14l-13.88-6-5.43-34.39-12.67-11.47-12.07,12.07-20.51,6L718,232.08,715.63,252l-11.47,10.26L668.57,249l-9.66-11.46-20.51-4.23L636.59,226l7.24-11.46,4.82.6-4.82-6-74.21-1.81-4.23,19.31-13.88,21.72-7.24,18.1-20.51,10.25-4.83,15.69-28.35,19.31-7.24-3.62-22.93-1.21L449.55,325.6l-23.53.6-9,9.05H396.45l-12.06,13.27-12.67,19.91-12.67,3.63-1.81-4.83L348.18,366l-2.41,5.43-19.31,3.62-13.27-20.51-19.31-2.42L280,358.78l-1.21,6.64L274,369l-4.22-10.25-23.53-19.91-12.67,1.2-.61,5.43-13.87-1.2L213,334l-12.67-1.21-6,3.62-12.07-4.82L178,342.49,163,340.07,150.28,326.8l-11.46.6L137,341.28l-6,.6,1.81,22.93-6,10.26v15.08l-22.92,21.12L102,421.53l-5.43,4.22,7.84,3-3.62,10.86-6-1.21-6,6.64,5.43,1.81v10.86l-12.67,6,6,3.62-2.42,7.84-16.89.61-3.62,4.22H57.37l.6,4.23,7.84,1.2,3.63,5.43,7.24-4.22,9.65,7.84L84.52,509l-13.88,1.21-5.43,7.24,6,4.22v10.86L54.35,544l-6-1.21-3.62,4.83,3,9-7.84.6L35,553.06l-5.43,6L33.23,573l-9.65,7.84-4.22-3-9,11.46,1.2,9,6.64.61-4.22,10.25L9.7,607.36l-4.22,1.81L9.1,622.45l13.27,1.81,5.43-6.64,9.66,6.64L29,630.89l3,10.26,9.65-.6-1.21,4.82L50.13,643l6.42,6.55L74,648.89l14-4.29,34.86.54,11.26-4.29H147.5l4.29,4.83,12.87-8.58,23.59-5.37,27.36-18.23,12.87,4.29L236,639.24V651l7.5,7.51,15.56-1.08,24.13-4.82,10.73-10.19,8-1.08,15-32.71,22-2.15,7.51,8.05,21.46,9.65,48.8,6.44,44-22.53,30.56-1.61,15.56,10.19,16.62,1.07,35.4,17.7L563.67,650l20.38.54,18.23,13.94,14.48-1.61,8,16.09,5.9,1.61,5.9-7.51-7-3.22,2.68-7,20.92-17.16,20.38-1.07.53-16.09,34.33-30.57,3.75-16.09L724,565.76l29-7,29.4-4L783.89,537l8.93-9.56,7-2.56L817.7,508.3l3.83-13.4,14-14,1.91-13.39-5.74-6.38-1.27-6.38L840,444.51l-16.58-38.27.64-19.77-11.48-8.93v-7.65l10.2-4.47,19.14-17.86,1.27-14-3.11-18.9Z" transform="translate(-5.08 -191.85)"/></g></svg>