<svg xmlns="http://www.w3.org/2000/svg" viewBox="0 0 413.86 834.92"><defs><style>.cls-1{fill:#c22a39;stroke:#656565;stroke-linejoin:round;stroke-width:0.8px;}</style></defs><g id="San_Juan"><path id="path5222" class="cls-1" d="M628.46,839.53l3.27-6.13-2.87-2.46-1.22-7.77-13.09-18V793.33l-4.49-4.09-7.77-2.46-4.5-9.81,2.86-4.5V769.2L576.12,750l-7.77-15.12,3.68-4.5.41-4.09-3.68-3.68-2.45-8.18-30.67-13.9-15.95-3.27L497.2,685.38,496,677.2,473.49,660l-15.13-.41-8.59-15.13L449,631.81l3.27-5.31-.41-2L437.1,611.37l-1.23-15.54-6.13-3.27-.41-22.08L424,564.35l-2-14.72-19.63-2.86-4.9-6.14-1.23-4.49L383.12,521c-1.71-2-2.45-10.23-2.45-10.23l.21-9.2-.62-5.52,3.27-2,1.23-5.32h3.68l1.23-4.9-6.55-6.54,1.23-2.46,4.09.82,1.64-9,5.31-4.09h5.32l2.86,5.31H406l1.23-2.86,1.63.41,1.23,4.5,7.36,5.72,1.23-6.95,2.86.82.41,5.72,4.09,3.27,9.81-9.4-.82-9-3.27-.82v-4.09l3.27-1.23v-3.68l-5.72.41-3.68-2.45.82-6.54,5.72-4.09,4.5,6.54,4.09,1.23V442.1l-2-.82v-6.14l4.5-2,2.45,2.86,6.55.41V422.88l-2.46-4.5v-4.91l4.91.82,2.45-8.17,2.46-1.64,2.86,4.91,2-4.09,1.64-11.45,2-1.64-11-17.58,2.05-4.5,13.9-7.36,10-12.88,1.84-7.36,9-12.67,15.74-2.05,12.88,7.77,18.81-19-1.63-5.32,5.72-8-12.67-9.2-.82-4.91,8.18-12.88,5.52-1.43,13.69,10.84,9,.41,2.86,3.47,2-2.86,5.52-1.43L581,273.23l2.65-.21,1.43-2.65,2.66,1,.41,2.86,4.29-.41,1.44-3.27h3.68l1.63,3.27,2.86-.82,1-2.25,3.68-1,5.31-8.18.61-7.15-1.43-1.23-9.81,1.23-9.61-11-1.23-3.48L587,236.43l.41-4.91,2-1.43-.21-2-4.49-.82-8.39-8.18-1.63-7L571,209.24l.2-1.43,2.86-1.43v-2l1.23-2.86-2.25-2.66L569,200.45l-3.88-3.07.61-5.11-3.18-5.5-3.27-3.34-4.61,1.15.58-2.3-4.61.28-1.44-4.89,4-3.16-4.6-3.17L546,174.51l-6.33-.87-1.73-6.33,2-.86,2,.86,2-4.89-3.16-.29-.58-4.32,4.32-5.47,2,1.44,4.61-3.74-1.73-6.62,2.59-2.88,2.3,2,3.74-.29L556.65,138l1.72-2.3,2.88.58,8.06-5.47v-5.18l-2.88-2,2.59-3.45,6.62-.58.86-6.9-4.6-3.75-3.45,2-1.73-2.59-3.74-.58-.29-2h3.45l1.73-2,8.06-.28,1.15-3.75L574.2,98l6-2.88V89.89L577.66,89l2.87-3.17,2.88.58,1.73-5.18-3.74-1.44,2.59-2,.86-4.89,10.94-10.07v-7.2l2.88-4.89-.87-10.94,2.88-.29.84-6.78-2.28-2.43,2.88-1.44-.29-3.45-3.74-.58-1.73-6.9,4-2.31-4-3.45-.39-4-10.91,18-4.5-13.51-7.2-2.7h-12.3l-12.61,7.51-5.1,5.4-6.6,1.8-6,2.1-.6,7.5-3.3,2.1-4.8,7.8-1.2,5.7L504.34,66.93l-3.9,3.9-.3,3.3-3,1.8.6,2.1,7.8.3.9,9.3,2.4,3.31.9,19.2-1.5,3.3-1.2,6-12.3,7.2-2.1.6-2.7,9-.3,8.7-3.6.3-3,5.1v7.5l3.3,5.7,3,1.51,1.5-3,8.7-2.4,5.4-9.6,2.7-.6.6,1.2,4.2,4.5,5.41.3,1.5,6.6,4.5,1.2.6,5.11-2.1,1.8-5.1,9.3-13.51,6.6-1.5,2.1-13.2,1.2-6.6-5.4-10.51-.3-20.1,16.21-11.7,8.1,1.2-6.3-5.11-1.8-1.8,3.3-.9-4.81-3.9-.6-1.5-6.3-6.3-4.5-8.7,2.4-1.2,2.1,4.5,2.4-4.8,2.7v3l4.8,1.8,2.4,6.6-8.7,10.5-10.21,4.8-3.3,10.5-2.7,2.4-1.5,5.4-2.1.91-3.9-5.41-19.5,11.11L360.3,250v4.5l8.71,5.4-4.5,3.3-5.11,11.1-3-1.8h-6l-6.6,9,1.8,3.9.3,11.4-10.2,8.1-3,9.6,13.5,17.11.6,1.8,3.6,1.8,5.4-3.3,2.7,3.6-10.2,11.7-4.2,16.51,1.2,23.4-3,13.21-7.5,10.2-.6,11.4,5.4,8.7L351,441.73l3,12.6-2.7,5.7-3.9,2.7L344.7,472l3,10.2,14.11,9.6,1.8,6.3-1.2,3.6-9,3.9-3.6,6.91,2.7,5.4-.9,10.8-2.4,1.5v2.4l3.3,2.1,1.8,5.4,2.4.9,1.2,9.91-12.6,11.1h-9l-6.9-9-1.2-7.51-6.91-7.5-8.7-.6-4.2,2.4.6,3.6,6.6,3.91.6,7.5-6.3,8.7-14.4.9-9,6-10.2-6.9L267,560l-8.7-6.9v-7.51h-2.4l-7.2,6.6-1.21,6.61-14.1,18.6-6.9,2.4-3,3.6.3,6.61,4.8,5.1v2.1l-9.9,4.5v2.4l3.59,3.25,14.51,6.19,4.84,6.18-3.5,3.22-1.61,10.48,4,8.87,7.26,7,7.52.8,17.47,28,12.36,10.21h9.94l4-3.49,2.41,1.07,1.89,6.45,2.95,1.08.81-2.42,3.22-.27,3.77,4.3,2.41-3.49H319l2.15-3-4-3.22,3-2.69,3.76-8.06,2.15,1.88,2.42-5.92,4.84-2.68,2.15.53L333.52,671l2.14,4.84,4.57-.81,1.08,2.69,8.87,2.69.8,2.42,5.11,5.37,4.84-3.76L358.51,682l2.95-4.3,7.26,3.23,5.64,2.41,1.88,1.08,1.08-3.23,5.64-1.34.81-3.49,2.15,1.34,4.57-.81.8-2.95,1.67,6.48,6.8,3.77,4.16-2.26,3,1.89-1.89,5.66,7.94,4.16,4.91-5.29,3,.38.38,6.8,4.91-1.14,3.4,2.65,1.89-4.16,6.42-2.27L436,695.56l3.78,1.13,1.13,4.53,6.8,2.27-3.4-3.4,5.67,2.27.38,2.64,9.06,1.89,5.29,4.15,1.13,6.43,5.29-2.27-.75,4.53,2.64,3.78h3l1.52,6.8-2.27.76-.38,4.15,5.29.76,3,5.66-3.4.76,2.65,5.67L487,750l2.64-2.64h3.4v1.89l7.18,3.4,3.4-2.65,3.4.76,2.65,3.4h5.66l1.51-4.16h5.67l.76,2.65,9.82,1.13,12.47,5.67,1.51,5.29,3.77,1.88.38,3.4,7.56.76,1.89-3,1.51,2.64,9.06,1.51,14.36,11,3.78,20.78,8.31,19.26,9.44,9.07,8.69,3.4,3,3,2.23,3.91Z" transform="translate(-218.27 -7.74)"/></g></svg>