<svg xmlns="http://www.w3.org/2000/svg" viewBox="0 0 836.27 682.95"><defs><style>.cls-1{fill:#c22a39;stroke:#656565;stroke-linejoin:round;stroke-width:0.8px;}</style></defs><g id="Bagado"><path id="path5340" class="cls-1" d="M478.62,620.54l-26.39,10.63h-7.88l-5.12,3.94-.79,19.3-1.57,3.15-7.09.4-17.73,16.93-1.18,9.85L405,687.89,396.3,691,392,698.53l2,10.24-5.52,9.06-5.51-.4L373.46,706H366l-7.87,6.7-5.52.78-4.72-8.27-23.24,5.91-5.91,5.12-1.58-3.15-18.51-.39-5.51,5.9-11,1.58-3.15,11-18.12,18.9-20.48,3.94-11.42,7.48-1.57,4.73-4.73-.39-26-18.91-15.75-2.76-11.82-28V696.16l-10.63-3.54-4.73,3.54-11.42,1.58L125.33,713.1l-4.73-4.33L114.3,710l-3.55,4.73.79,7.87-5.91,2.76-.78,5.51L89.49,738.7l-5.91-.79-6.3-13-11-6.63-5.64-12.82L48.13,701V670L53,668.83l2-7.25,4.43-.4,2.42-4.83-6.44-4.83-10.88.4-2.81-8-10.07-4-6.44,1.61L24,635.81l-8.86-1.2-4,5.63L7.46,639v-7.24l4.43-6.85,6,.81,5.64-3.22L26,612.06H36.45l1.21-10.87,9.26-16.11,9.26-6,.4-7.24,3.63-1.61.4,4,10.47,9.67,10.06,17.71,7.25-.4,35.43,10.47,19.33.4.8-9.26,4.43-3.22,5.24.8,16.5-16.5,15.3-.4,4.83,5.23,9.56-6,6.45-2.29-6.15-6.15-.77-10.76L188.58,551.2l.77-4.62,6.92-3.07L194.73,512,204,499.71l15.37-.77,1.54-12.29,9.22-10.76-1.54-17.67,10-16.14-4.61-6.15,5.38-4.61.77-36.12,18.44-10,16.14,1.54,12.29-10,.77-13.06,13.83-13.83s9.22,3.07,12.3,1.53a87.37,87.37,0,0,0,8.45-5.38l3.07-7.68,8.46-4.61,3.07-16.14,6.15-8.45v-9.22l7.68,2.3,21.52-11.52,12.29-9.22,8.45,4.61,38.43-.77,4.61-4.61,6.14-.77,20-11.53,4.61-13.06L466,239.21l4.62-5.38.76-5.38-6.91-4.61v-6.15L476,220l20.75-6.15,13.06-10.76,3.85-7.68,13.83-.77,7.68-8.45,14.6-2.31,3.84-13.06-3.07-3.07L562,159.3l8.45-2.31,7.62-9.39,10.72-2.44,3.65-7.3,6.69,1.83,1.83,3.65,6.08-1.22,11.56-11h6.7L643,116.57V111.7l-9.13-8.52,1.83-6.69,7.91-.61,9.13-6.69,17.64,1.21L685,84.12l10.52,10.51,7,3.21,5,8.71,7.06,4.08,6,6.08,3.18,5.31,9,7.37L756,141.21l9,7.59,6.86,6.4,12.08.44,18.34,21.93.45,6.71,9.84,5.81,7.16.9,21.47,20.58.45,6.26-6.26,6.71V239.3l7.6,5.82-1.34,6.26H838l-14.32,13.87L825,272,837.11,284l-.44,22.81-8.39,11.69-18.57-.43h-10l-14.3-9.21L762.8,303l-25.55,1.65-11.75,2.76-9.68,18.49-11.15,9.54L683,337l-7.6,9.88,1.61,9.5L664.4,372l-9,5.07.84,6.7,5,2.51v8.38l13.38,20.09,9.2,10.89.09,31-5.86,10.89,1.67,30.15,10,12.56L682.25,537l1.2,11.55-15,3.82-8.28-8.28L643,553.05l-14.65,34.39-13.37,14-7.65-5.1-19.1,3.18-10.83,8.92-11.47-3.82L557,626.93,546.84,616.1l-30.58,7-14,12.74-11.46-30.57-14.65,3.82Z" transform="translate(-7.06 -83.72)"/></g></svg>